<svg height="1024" node-id="1" sillyvg="true" template-height="1024" template-width="1024" version="1.1" viewBox="0 0 1024 1024" width="1024" xmlns="http://www.w3.org/2000/svg" xmlns:xlink="http://www.w3.org/1999/xlink"><defs node-id="204"><clipPath id="master_svg0_33_7225" node-id="3"><path d="M 0.00 0.00 L 1024.00 0.00 L 1024.00 1024.00 L 0.00 1024.00 Z" fill="#000000" fill-rule="nonzero" node-id="207" stroke="none" target-height="1024" target-width="1024" target-x="0" target-y="0"/></clipPath></defs><g node-id="705"><g clip-path="url(#master_svg0_33_7225)" group-id="1" id="sillyvg_g_1" node-id="213"><path d="M 1012.00 429.05 L 1011.70 501.22 L 927.80 549.98 L 928.09 477.81 L 1012.00 429.05 Z" fill="#efac41" fill-rule="nonzero" group-id="1,2" node-id="217" stroke="none" target-height="120.93396" target-width="84.204285" target-x="927.7992" target-y="429.04834"/><path d="M 928.14 477.83 L 927.80 549.98 L 843.35 501.19 L 843.63 429.12 L 843.63 428.99 L 843.77 428.99 L 880.40 450.21 L 888.73 455.07 L 891.23 456.46 L 928.14 477.83 Z" fill="#f9bb4a" fill-rule="nonzero" group-id="1,3" node-id="222" stroke="none" target-height="120.99701" target-width="84.78723" target-x="843.35065" target-y="428.98535"/><path d="M 1012.03 429.10 L 928.09 477.86 L 891.20 456.51 L 880.52 450.47 L 880.30 450.36 L 843.63 429.10 L 927.55 380.35 L 1012.03 429.10 Z" fill="#fed57a" fill-rule="nonzero" group-id="1,4" node-id="227" stroke="none" target-height="97.5163" target-width="168.40094" target-x="843.62634" target-y="380.3452"/><path d="M 880.26 407.75 L 964.19 456.51 L 974.87 450.47 L 975.08 450.36 L 890.94 401.60 L 890.83 401.71 L 880.26 407.75 Z" fill="#efac41" fill-rule="nonzero" group-id="1,5" node-id="232" stroke="none" target-height="54.909973" target-width="94.822266" target-x="880.26196" target-y="401.59717"/><path d="M 964.17 456.47 L 964.30 528.68 L 975.12 522.43 L 974.99 450.35 L 966.66 455.08 L 964.17 456.47 Z" fill="#d8983a" fill-rule="nonzero" group-id="1,6" node-id="237" stroke="none" target-height="78.32031" target-width="10.956787" target-x="964.1669" target-y="450.35498"/><path d="M 975.12 407.75 L 891.20 456.51 L 880.52 450.47 L 880.30 450.36 L 964.45 401.60 L 964.55 401.71 L 975.12 407.75 Z" fill="#efac41" fill-rule="nonzero" group-id="1,7" node-id="242" stroke="none" target-height="54.909973" target-width="94.822266" target-x="880.30145" target-y="401.59717"/><path d="M 891.23 456.47 L 891.09 528.68 L 880.26 522.43 L 880.40 450.35 L 888.73 455.08 L 891.23 456.47 Z" fill="#d8983a" fill-rule="nonzero" group-id="1,8" node-id="247" stroke="none" target-height="78.32031" target-width="10.964661" target-x="880.26196" target-y="450.35498"/><path d="M 922.16 669.66 L 921.87 741.83 L 837.96 790.59 L 838.25 718.41 L 922.16 669.66 Z" fill="#efac41" fill-rule="nonzero" group-id="1,9" node-id="252" stroke="none" target-height="120.93396" target-width="84.19635" target-x="837.9629" target-y="669.65674"/><path d="M 838.30 718.45 L 837.96 790.60 L 753.51 741.80 L 753.79 669.73 L 753.79 669.59 L 753.92 669.59 L 790.56 690.83 L 798.89 695.68 L 801.39 697.07 L 838.30 718.45 Z" fill="#f9bb4a" fill-rule="nonzero" group-id="1,10" node-id="257" stroke="none" target-height="121.005005" target-width="84.79498" target-x="753.5065" target-y="669.59375"/><path d="M 922.18 669.71 L 838.25 718.47 L 801.36 697.12 L 790.68 691.07 L 790.47 690.96 L 753.78 669.71 L 837.71 620.95 L 922.18 669.71 Z" fill="#fed57a" fill-rule="nonzero" group-id="1,11" node-id="262" stroke="none" target-height="97.5163" target-width="168.40094" target-x="753.7822" target-y="620.9536"/><path d="M 790.43 648.35 L 874.35 697.11 L 885.03 691.07 L 885.25 690.96 L 801.11 642.21 L 801.00 642.32 L 790.43 648.35 Z" fill="#efac41" fill-rule="nonzero" group-id="1,12" node-id="267" stroke="none" target-height="54.90216" target-width="94.82245" target-x="790.42566" target-y="642.20557"/><path d="M 874.32 697.07 L 874.46 769.28 L 885.29 763.04 L 885.15 690.96 L 876.82 695.69 L 874.32 697.07 Z" fill="#d8983a" fill-rule="nonzero" group-id="1,13" node-id="272" stroke="none" target-height="78.32025" target-width="10.964661" target-x="874.32275" target-y="690.9639"/><path d="M 885.29 648.35 L 801.36 697.11 L 790.68 691.07 L 790.47 690.96 L 874.61 642.21 L 874.72 642.32 L 885.29 648.35 Z" fill="#efac41" fill-rule="nonzero" group-id="1,14" node-id="277" stroke="none" target-height="54.90216" target-width="94.822205" target-x="790.4651" target-y="642.20557"/><path d="M 801.39 697.07 L 801.25 769.28 L 790.43 763.04 L 790.56 690.96 L 798.89 695.69 L 801.39 697.07 Z" fill="#d8983a" fill-rule="nonzero" group-id="1,15" node-id="282" stroke="none" target-height="78.32025" target-width="10.964661" target-x="790.42566" target-y="690.9639"/><path d="M 877.10 309.98 L 329.37 628.29 L 12.71 445.46 L 560.44 127.16 L 877.10 309.98 Z" fill="#fed57a" fill-rule="nonzero" group-id="1,16" node-id="287" stroke="none" target-height="501.13004" target-width="864.382" target-x="12.713347" target-y="127.1572"/><path d="M 877.10 309.98 L 876.37 568.45 L 328.63 886.75 L 329.37 628.29 L 877.10 309.98 Z" fill="#efac41" fill-rule="nonzero" group-id="1,17" node-id="292" stroke="none" target-height="576.772" target-width="548.46204" target-x="328.6331" target-y="309.98047"/><path d="M 329.37 628.29 L 328.63 886.75 L 11.98 703.93 L 12.71 445.46 L 329.37 628.29 Z" fill="#f9bb4a" fill-rule="nonzero" group-id="1,18" node-id="297" stroke="none" target-height="441.289" target-width="317.385" target-x="11.9808035" target-y="445.46387"/><path d="M 109.28 623.45 L 109.54 599.06 L 202.10 652.48 L 201.81 676.88 L 109.28 623.45 Z" fill="#4c7891" fill-rule="nonzero" group-id="1,19" node-id="302" stroke="none" target-height="77.8161" target-width="92.8217" target-x="109.27655" target-y="599.0635"/><path d="M 730.02 224.37 L 182.02 542.47 L 182.02 620.08 L 161.94 590.42 L 142.32 598.66 L 142.32 519.50 L 690.32 201.41 L 730.02 224.37 Z" fill="#e4e8f4" fill-rule="nonzero" group-id="1,20" node-id="307" stroke="none" target-height="418.674" target-width="587.697" target-x="142.32019" target-y="201.40526"/><path d="M 851.80 552.72 L 683.93 649.69 L 683.55 531.65 L 851.42 434.68 L 851.80 552.72 Z" fill="#ffffff" fill-rule="nonzero" group-id="1,21" node-id="312" stroke="none" target-height="215.008" target-width="168.25104" target-x="683.5515" target-y="434.68018"/><path d="M 694.56 534.04 L 694.84 634.56 L 690.92 636.82 L 690.64 536.30 L 694.56 534.04 Z M 717.19 520.97 L 717.48 621.49 L 713.44 623.82 L 713.15 523.30 L 717.19 520.97 Z M 709.73 525.28 L 710.01 625.80 L 707.57 627.22 L 707.28 526.69 L 709.73 525.28 Z M 722.08 518.14 L 722.37 618.66 L 719.93 620.08 L 719.64 519.55 L 722.08 518.14 Z M 725.02 516.45 L 725.31 616.97 L 724.32 617.53 L 724.04 517.02 L 725.02 516.45 Z M 729.30 513.98 L 729.58 614.49 L 727.14 615.91 L 726.85 515.39 L 729.30 513.98 Z M 735.42 510.45 L 735.70 610.96 L 732.03 613.08 L 731.75 512.57 L 735.42 510.45 Z M 740.31 507.62 L 740.60 608.14 L 738.15 609.56 L 737.86 509.03 L 740.31 507.62 Z M 703.72 528.74 L 704.02 629.26 L 697.16 633.22 L 696.88 532.69 L 703.72 528.74 Z M 746.68 503.95 L 746.96 604.46 L 743.05 606.73 L 742.76 506.21 L 746.68 503.95 Z M 761.72 495.26 L 762.01 595.77 L 759.56 597.19 L 759.28 496.67 L 761.72 495.26 Z M 774.08 488.13 L 774.36 588.64 L 771.92 590.06 L 771.63 489.54 L 774.08 488.13 Z M 777.14 486.36 L 777.43 586.87 L 776.44 587.44 L 776.16 486.92 L 777.14 486.36 Z M 787.42 480.42 L 787.70 580.95 L 784.16 582.99 L 783.87 482.47 L 787.42 480.42 Z M 792.31 477.60 L 792.60 578.11 L 790.15 579.53 L 789.87 479.01 L 792.31 477.60 Z M 755.85 498.65 L 756.14 599.17 L 749.28 603.12 L 749.00 502.61 L 755.85 498.65 Z M 798.67 473.92 L 798.96 574.45 L 795.04 576.70 L 794.76 476.19 L 798.67 473.92 Z M 813.84 465.16 L 814.13 565.69 L 811.69 567.10 L 811.39 466.58 L 813.84 465.16 Z M 833.42 453.87 L 833.70 554.38 L 831.26 555.80 L 830.98 455.28 L 833.42 453.87 Z M 839.54 450.33 L 839.82 550.85 L 836.15 552.98 L 835.87 452.45 L 839.54 450.33 Z M 807.85 468.63 L 808.13 569.14 L 801.28 573.10 L 801.00 472.58 L 807.85 468.63 Z M 769.18 490.95 L 769.47 591.47 L 765.56 593.73 L 765.27 493.21 L 769.18 490.95 Z M 781.42 483.88 L 781.71 584.40 L 779.26 585.82 L 778.97 485.30 L 781.42 483.88 Z M 821.31 460.86 L 821.59 561.37 L 817.68 563.63 L 817.40 463.12 L 821.31 460.86 Z M 826.20 458.04 L 826.49 558.54 L 824.04 559.96 L 823.75 459.45 L 826.20 458.04 Z M 829.14 456.33 L 829.42 556.86 L 828.45 557.42 L 828.16 456.91 L 829.14 456.33 Z M 844.43 447.50 L 844.71 548.03 L 842.27 549.44 L 841.99 448.92 L 844.43 447.50 Z" fill="#5b5e71" fill-rule="nonzero" group-id="1,22,99" node-id="319" stroke="none" target-height="189.31396" target-width="154.073" target-x="690.64075" target-y="447.50385"/><path d="M 280.05 762.86 L 271.20 779.89 L 276.68 783.09 L 288.77 790.10 L 280.05 762.86 Z M 276.68 783.09 L 276.59 816.77 L 283.19 820.63 L 283.29 786.95 L 276.68 783.09 Z M 243.86 800.65 L 243.84 807.87 L 289.45 834.52 L 289.48 827.31 L 243.86 800.65 Z M 160.49 695.03 L 160.42 719.02 C 160.41 726.60 164.73 735.41 170.47 739.86 L 170.42 761.49 C 166.38 759.62 163.34 759.79 163.34 762.05 L 181.13 772.45 C 181.13 770.18 178.11 766.46 174.08 763.64 L 174.14 742.01 C 176.77 743.07 179.03 742.81 180.81 741.69 C 182.89 740.12 184.26 737.17 184.27 732.96 L 184.34 708.96 L 160.49 695.03 Z M 250.25 767.65 L 250.16 801.33 L 256.77 805.19 L 256.86 771.51 L 250.25 767.65 Z" fill="#3f434f" fill-rule="nonzero" group-id="1,23" node-id="325" stroke="none" target-height="139.49207" target-width="129.0717" target-x="160.40569" target-y="695.02826"/><path d="M 253.57 747.39 L 244.78 764.45 L 250.25 767.65 L 262.29 774.62 L 253.57 747.39 Z M 207.21 796.00 C 206.31 795.98 205.44 795.72 204.67 795.25 L 142.80 759.11 C 140.15 757.56 138.00 753.70 138.00 750.54 L 138.22 678.47 C 138.22 676.66 138.93 675.22 140.14 674.51 C 141.35 673.82 142.86 673.93 144.35 674.78 L 206.23 710.92 C 208.96 712.55 211.17 716.41 211.13 719.56 L 210.94 791.63 C 210.94 793.42 210.21 794.84 208.97 795.53 C 208.44 795.85 207.83 796.01 207.21 796.00 Z M 141.88 676.68 C 141.73 676.68 141.57 676.72 141.44 676.79 C 141.04 677.03 140.82 677.66 140.82 678.48 L 140.60 750.54 C 140.60 752.79 142.24 755.72 144.12 756.82 L 205.99 792.96 C 206.70 793.37 207.30 793.42 207.70 793.25 C 208.08 793.01 208.32 792.43 208.34 791.62 L 208.53 719.56 C 208.53 717.35 206.82 714.33 204.91 713.22 L 143.04 677.08 C 142.69 676.84 142.29 676.71 141.88 676.68 Z" fill="#3f434f" fill-rule="nonzero" group-id="1,24" node-id="330" stroke="none" target-height="122.19513" target-width="124.298004" target-x="137.99585" target-y="673.81555"/><path d="M 299.29 849.79 C 298.40 849.78 297.53 849.53 296.77 849.06 L 234.91 812.92 C 232.20 811.35 230.08 807.57 230.08 804.35 L 230.30 732.27 C 230.30 730.47 230.98 729.03 232.22 728.32 C 233.46 727.58 234.95 727.69 236.44 728.58 L 298.31 764.74 C 301.04 766.31 303.25 770.20 303.21 773.37 L 303.03 845.44 C 303.03 847.19 302.34 848.60 301.13 849.32 C 300.57 849.64 299.93 849.80 299.29 849.79 Z M 233.99 730.50 C 233.83 730.50 233.67 730.54 233.52 730.61 C 233.13 730.84 232.90 731.44 232.90 732.26 L 232.68 804.35 C 232.68 806.60 234.35 809.53 236.23 810.63 L 298.08 846.78 C 298.76 847.16 299.39 847.23 299.80 847.04 C 300.19 846.80 300.42 846.21 300.42 845.44 L 300.61 773.36 C 300.61 771.15 298.91 768.15 296.99 767.02 L 235.12 730.87 C 234.78 730.65 234.39 730.53 233.98 730.50 L 233.99 730.50 Z M 115.13 742.23 C 114.24 742.21 113.37 741.96 112.61 741.49 L 50.74 705.35 C 48.03 703.78 45.92 700.00 45.92 696.78 L 46.14 624.70 C 46.14 622.91 46.81 621.47 48.05 620.76 C 49.29 620.02 50.78 620.13 52.27 621.01 L 114.14 657.16 C 116.88 658.74 119.09 662.63 119.05 665.80 L 118.85 737.87 C 118.85 739.61 118.18 741.04 116.96 741.75 C 116.41 742.07 115.77 742.24 115.13 742.23 Z M 49.82 622.93 C 49.66 622.93 49.50 622.96 49.35 623.03 C 48.97 623.27 48.73 623.88 48.73 624.70 L 48.52 696.79 C 48.52 699.04 50.18 701.98 52.07 703.07 L 113.91 739.21 C 114.59 739.60 115.23 739.67 115.64 739.47 C 116.02 739.23 116.26 738.65 116.26 737.88 L 116.44 665.80 C 116.44 663.58 114.74 660.59 112.82 659.46 L 50.95 623.31 C 50.61 623.09 50.22 622.97 49.82 622.94 L 49.82 622.93 Z" fill="#3f434f" fill-rule="nonzero" group-id="1,25" node-id="335" stroke="none" target-height="229.78839" target-width="257.331" target-x="45.92245" target-y="620.0162"/><path d="M 81.05 648.18 L 81.04 651.53 C 68.43 645.10 58.35 651.42 58.30 666.14 L 80.96 679.37 L 80.88 706.13 C 80.87 710.75 84.16 716.51 88.17 718.85 C 92.18 721.20 95.48 719.29 95.49 714.66 L 92.44 712.88 C 92.44 715.56 90.51 716.67 88.17 715.31 C 85.84 713.94 83.92 710.59 83.94 707.91 L 84.02 681.15 L 106.66 694.38 C 106.70 679.67 96.74 661.63 84.09 653.31 L 84.09 649.96 L 81.05 648.18 Z" fill="#3f434f" fill-rule="nonzero" group-id="1,26" node-id="340" stroke="none" target-height="76.099" target-width="48.395798" target-x="58.304993" target-y="645.09644"/><path d="M 765.23 121.20 L 764.54 336.24 L 569.30 449.71 L 569.98 234.67 L 765.23 121.20 Z" fill="#efac41" fill-rule="nonzero" group-id="1,27" node-id="345" stroke="none" target-height="328.50702" target-width="195.93097" target-x="569.29675" target-y="121.20213"/><path d="M 570.09 234.72 L 569.30 449.71 L 372.79 336.17 L 373.44 121.38 L 373.44 121.06 L 373.76 121.06 L 459.01 170.46 L 478.39 181.77 L 484.20 185.00 L 570.09 234.72 Z" fill="#f9bb4a" fill-rule="nonzero" group-id="1,28" node-id="350" stroke="none" target-height="328.649" target-width="197.301" target-x="372.79105" target-y="121.06054"/><path d="M 765.27 121.34 L 569.97 234.79 L 484.12 185.09 L 459.27 171.04 L 458.78 170.79 L 373.43 121.34 L 568.73 7.88 L 765.27 121.34 Z" fill="#fed57a" fill-rule="nonzero" group-id="1,29" node-id="355" stroke="none" target-height="226.91801" target-width="391.845" target-x="373.42917" target-y="7.8769374"/><path d="M 547.07 148.54 L 484.13 185.09 L 459.28 171.04 L 458.78 170.79 L 522.22 134.22 L 522.47 134.47 L 547.07 148.54 Z M 679.31 71.71 L 616.37 108.27 L 591.52 94.21 L 591.02 93.96 L 654.70 57.65 L 679.31 71.71 Z" fill="#efac41" fill-rule="nonzero" group-id="1,30" node-id="360" stroke="none" target-height="127.440994" target-width="220.52197" target-x="458.7835" target-y="57.651352"/><path d="M 484.19 185.00 L 483.88 400.12 L 458.69 385.59 L 459.01 170.79 L 478.39 181.77 L 484.19 185.00 Z" fill="#d8983a" fill-rule="nonzero" group-id="1,31" node-id="365" stroke="none" target-height="229.329" target-width="25.505493" target-x="458.68893" target-y="170.78758"/><path d="M 648.76 217.73 L 748.55 160.12 L 748.73 223.20 L 648.94 280.81 L 648.76 217.73 Z M 746.52 221.94 L 746.36 163.92 L 650.97 218.99 L 651.13 277.02 L 746.52 221.94 Z" fill="#5b5e71" fill-rule="nonzero" group-id="1,32" node-id="370" stroke="none" target-height="120.68999" target-width="99.97394" target-x="648.75916" target-y="160.12206"/><path d="M 746.46 222.01 L 651.09 276.98 L 650.93 219.04 L 746.31 163.91 L 746.46 222.01 Z" fill="#ffffff" fill-rule="nonzero" group-id="1,33" node-id="375" stroke="none" target-height="113.07301" target-width="95.53125" target-x="650.9332" target-y="163.91112"/><path d="M 751.93 153.44 C 753.14 152.76 754.24 153.27 754.25 154.77 L 754.44 221.98 C 754.34 223.59 753.49 225.06 752.14 225.95 L 645.66 287.43 C 644.36 288.18 643.36 287.60 643.35 286.11 L 643.16 218.90 C 643.16 217.40 644.15 215.68 645.44 214.93 L 751.93 153.44 Z M 748.73 223.20 L 748.55 160.12 L 648.76 217.73 L 648.94 280.81 L 748.73 223.20 Z" fill="#ffffff" fill-rule="nonzero" group-id="1,34" node-id="380" stroke="none" target-height="135.41994" target-width="111.27698" target-x="643.1587" target-y="152.75713"/><path d="M 741.38 173.36 L 741.38 175.88 L 656.00 225.19 L 655.99 222.66 L 741.38 173.36 Z M 741.42 190.13 L 741.43 192.65 L 656.05 241.96 L 656.04 239.43 L 741.42 190.13 Z M 741.40 181.74 L 741.41 184.26 L 656.02 233.57 L 656.01 231.05 L 741.40 181.74 Z M 716.05 213.18 L 716.05 215.70 L 656.07 250.34 L 656.06 247.82 L 716.05 213.18 Z" fill="#5b5e71" fill-rule="nonzero" group-id="1,35" node-id="385" stroke="none" target-height="76.989" target-width="85.44104" target-x="655.9901" target-y="173.35545"/><path d="M 383.95 323.87 L 449.28 361.60 L 449.43 315.66 L 384.10 277.93 L 383.95 323.87 Z" fill="#ffffff" fill-rule="nonzero" group-id="1,36" node-id="390" stroke="none" target-height="83.66867" target-width="65.47302" target-x="383.95273" target-y="277.9292"/><path d="M 445.14 316.59 L 445.03 355.71 L 446.55 356.59 L 446.67 317.47 L 445.14 316.59 Z M 436.33 311.51 L 436.22 350.63 L 437.80 351.53 L 437.90 312.41 L 436.33 311.51 Z M 439.24 313.19 L 439.13 352.30 L 440.08 352.85 L 440.19 313.73 L 439.24 313.19 Z M 434.43 310.41 L 434.32 349.52 L 435.26 350.07 L 435.38 310.96 L 434.43 310.41 Z M 433.29 309.74 L 433.18 348.86 L 433.55 349.08 L 433.66 309.96 L 433.29 309.74 Z M 431.62 308.78 L 431.51 347.90 L 432.46 348.45 L 432.57 309.33 L 431.62 308.78 Z M 429.24 307.41 L 429.13 346.53 L 430.56 347.35 L 430.67 308.24 L 429.24 307.41 Z M 427.34 306.31 L 427.22 345.43 L 428.17 345.98 L 428.28 306.86 L 427.34 306.31 Z M 441.57 314.53 L 441.46 353.65 L 444.12 355.19 L 444.23 316.07 L 441.57 314.53 Z M 424.86 304.88 L 424.75 344.00 L 426.28 344.88 L 426.39 305.76 L 424.86 304.88 Z M 419.01 301.50 L 418.89 340.61 L 419.84 341.17 L 419.96 302.05 L 419.01 301.50 Z M 414.19 298.72 L 414.08 337.84 L 415.04 338.39 L 415.15 299.28 L 414.19 298.72 Z M 413.00 298.04 L 412.89 337.16 L 413.27 337.38 L 413.39 298.26 L 413.00 298.04 Z M 409.00 295.73 L 408.89 334.85 L 410.28 335.64 L 410.39 296.53 L 409.00 295.73 Z M 407.10 294.63 L 406.99 333.75 L 407.94 334.30 L 408.06 295.18 L 407.10 294.63 Z M 421.29 302.82 L 421.18 341.94 L 423.84 343.47 L 423.95 304.36 L 421.29 302.82 Z M 404.62 293.20 L 404.51 332.32 L 406.04 333.19 L 406.15 294.08 L 404.62 293.20 Z M 398.72 289.79 L 398.61 328.91 L 399.56 329.46 L 399.68 290.34 L 398.72 289.79 Z M 391.10 285.40 L 390.99 324.51 L 391.94 325.06 L 392.06 285.94 L 391.10 285.40 Z M 388.73 284.02 L 388.61 323.14 L 390.04 323.96 L 390.15 284.85 L 388.73 284.02 Z M 401.05 291.13 L 400.94 330.26 L 403.61 331.79 L 403.72 292.68 L 401.05 291.13 Z M 416.10 299.83 L 415.99 338.94 L 417.51 339.82 L 417.62 300.70 L 416.10 299.83 Z M 411.33 297.08 L 411.23 336.19 L 412.18 336.75 L 412.29 297.62 L 411.33 297.08 Z M 395.82 288.11 L 395.71 327.23 L 397.23 328.11 L 397.34 289.00 L 395.82 288.11 Z M 393.91 287.01 L 393.80 326.13 L 394.75 326.68 L 394.86 287.56 L 393.91 287.01 Z M 392.77 286.36 L 392.66 325.47 L 393.04 325.70 L 393.15 286.58 L 392.77 286.36 Z M 386.82 282.92 L 386.71 322.03 L 387.65 322.58 L 387.77 283.47 L 386.82 282.92 Z" fill="#5b5e71" fill-rule="nonzero" group-id="1,37,100" node-id="397" stroke="none" target-height="73.67291" target-width="59.959106" target-x="386.70963" target-y="282.91547"/><path d="M 663.66 795.13 L 658.23 793.08 L 655.04 770.71 L 660.48 772.77 L 663.66 795.13 Z M 659.50 765.93 L 654.07 763.88 L 647.13 715.22 L 652.56 717.27 L 659.50 765.93 Z" fill="#525566" fill-rule="nonzero" group-id="1,38" node-id="403" stroke="none" target-height="79.9035" target-width="16.533691" target-x="647.12866" target-y="715.2246"/><path d="M 602.81 798.66 L 597.37 796.62 L 654.07 763.88 L 659.50 765.93 L 602.81 798.66 Z" fill="#5b5e71" fill-rule="nonzero" group-id="1,39" node-id="408" stroke="none" target-height="34.784424" target-width="62.13318" target-x="597.3701" target-y="763.88043"/><path d="M 651.58 710.44 L 646.15 708.39 L 639.21 659.73 L 644.65 661.78 L 651.58 710.44 Z" fill="#525566" fill-rule="nonzero" group-id="1,40" node-id="413" stroke="none" target-height="50.703674" target-width="12.36676" target-x="639.2124" target-y="659.73145"/><path d="M 594.89 743.17 L 589.45 741.12 L 646.15 708.39 L 651.59 710.44 L 594.89 743.17 Z" fill="#5b5e71" fill-rule="nonzero" group-id="1,41" node-id="418" stroke="none" target-height="34.784485" target-width="62.13318" target-x="589.45386" target-y="708.3877"/><path d="M 643.67 654.94 L 638.24 652.89 L 631.30 604.24 L 636.73 606.29 L 643.67 654.94 Z" fill="#525566" fill-rule="nonzero" group-id="1,42" node-id="423" stroke="none" target-height="50.703674" target-width="12.374573" target-x="631.296" target-y="604.2388"/><path d="M 586.97 687.68 L 581.54 685.63 L 638.24 652.89 L 643.67 654.94 L 586.97 687.68 Z" fill="#5b5e71" fill-rule="nonzero" group-id="1,43" node-id="428" stroke="none" target-height="34.784485" target-width="62.13318" target-x="581.5375" target-y="652.89453"/><path d="M 635.75 599.45 L 630.32 597.40 L 623.38 548.75 L 628.81 550.79 L 635.75 599.45 Z" fill="#525566" fill-rule="nonzero" group-id="1,44" node-id="433" stroke="none" target-height="50.703674" target-width="12.36676" target-x="623.37976" target-y="548.7461"/><path d="M 579.06 632.19 L 573.62 630.14 L 630.32 597.40 L 635.75 599.45 L 579.06 632.19 Z" fill="#5b5e71" fill-rule="nonzero" group-id="1,45" node-id="438" stroke="none" target-height="34.784485" target-width="62.13318" target-x="573.6212" target-y="597.40137"/><path d="M 627.83 543.90 L 622.40 541.85 L 615.46 493.19 L 620.89 495.24 L 627.83 543.90 Z M 619.91 488.41 L 614.48 486.36 L 611.30 464.06 L 616.73 466.11 L 619.91 488.41 Z" fill="#525566" fill-rule="nonzero" group-id="1,46" node-id="443" stroke="none" target-height="79.840515" target-width="16.53357" target-x="611.2965" target-y="464.06104"/><path d="M 616.73 466.11 L 611.30 464.06 L 616.85 460.85 L 622.28 462.90 L 616.73 466.11 Z M 571.13 576.63 L 565.70 574.58 L 622.40 541.85 L 627.83 543.89 L 571.13 576.63 Z M 563.22 521.14 L 557.78 519.09 L 614.48 486.36 L 619.91 488.41 L 563.22 521.14 Z M 554.49 502.05 L 549.05 500.00 L 554.61 496.80 L 560.04 498.85 L 554.49 502.05 Z" fill="#5b5e71" fill-rule="nonzero" group-id="1,47" node-id="448" stroke="none" target-height="115.77496" target-width="78.77716" target-x="549.0531" target-y="460.85498"/><path d="M 616.73 466.11 L 622.28 462.91 L 669.22 791.92 L 663.66 795.13 L 660.48 772.77 L 603.78 805.50 L 606.97 827.86 L 601.42 831.06 L 554.49 502.04 L 560.03 498.85 L 563.22 521.14 L 619.91 488.41 L 616.73 466.11 Z M 659.50 765.93 L 652.56 717.27 L 595.87 750.01 L 602.80 798.67 L 659.50 765.93 Z M 643.67 654.94 L 636.73 606.29 L 580.03 639.02 L 586.97 687.68 L 643.67 654.94 Z M 635.75 599.45 L 628.81 550.79 L 572.12 583.53 L 579.06 632.19 L 635.75 599.45 Z M 627.83 543.90 L 620.89 495.25 L 564.19 527.97 L 571.13 576.63 L 627.83 543.90 Z M 651.59 710.44 L 644.65 661.78 L 587.95 694.52 L 594.89 743.17 L 651.59 710.44 Z" fill="#474b59" fill-rule="nonzero" group-id="1,48" node-id="453" stroke="none" target-height="368.15198" target-width="114.72699" target-x="554.48816" target-y="462.91113"/><path d="M 601.42 831.06 L 595.98 829.01 L 549.05 500.00 L 554.49 502.04 L 601.42 831.06 Z M 392.44 501.76 L 397.56 499.83 L 400.57 478.74 L 395.45 480.67 L 392.44 501.76 Z M 396.37 474.23 L 401.49 472.29 L 408.04 426.41 L 402.92 428.35 L 396.37 474.23 Z" fill="#525566" fill-rule="nonzero" group-id="1,49" node-id="458" stroke="none" target-height="404.653" target-width="208.975" target-x="392.44406" target-y="426.40918"/><path d="M 449.84 505.10 L 454.96 503.17 L 401.49 472.29 L 396.37 474.23 L 449.84 505.10 Z" fill="#5b5e71" fill-rule="nonzero" group-id="1,50" node-id="463" stroke="none" target-height="32.807343" target-width="58.58069" target-x="396.3746" target-y="472.29248"/><path d="M 403.83 421.90 L 408.95 419.97 L 415.51 374.08 L 410.39 376.01 L 403.83 421.90 Z" fill="#525566" fill-rule="nonzero" group-id="1,51" node-id="468" stroke="none" target-height="47.82074" target-width="11.6736145" target-x="403.83408" target-y="374.0752"/><path d="M 457.30 452.77 L 462.42 450.84 L 408.96 419.96 L 403.84 421.90 L 457.30 452.77 Z" fill="#5b5e71" fill-rule="nonzero" group-id="1,52" node-id="473" stroke="none" target-height="32.807373" target-width="58.580658" target-x="403.84198" target-y="419.958"/><path d="M 411.30 369.56 L 416.42 367.63 L 422.97 321.74 L 417.85 323.68 L 411.30 369.56 Z" fill="#525566" fill-rule="nonzero" group-id="1,53" node-id="478" stroke="none" target-height="47.82074" target-width="11.665741" target-x="411.30136" target-y="321.74072"/><path d="M 464.77 400.43 L 469.89 398.50 L 416.42 367.62 L 411.30 369.56 L 464.77 400.43 Z" fill="#5b5e71" fill-rule="nonzero" group-id="1,54" node-id="483" stroke="none" target-height="32.807373" target-width="58.588593" target-x="411.30136" target-y="367.62402"/><path d="M 418.77 317.23 L 423.89 315.30 L 430.43 269.41 L 425.31 271.34 L 418.77 317.23 Z" fill="#525566" fill-rule="nonzero" group-id="1,55" node-id="488" stroke="none" target-height="47.812897" target-width="11.665741" target-x="418.76868" target-y="269.41455"/><path d="M 472.24 348.10 L 477.36 346.17 L 423.89 315.29 L 418.77 317.23 L 472.24 348.10 Z" fill="#5b5e71" fill-rule="nonzero" group-id="1,56" node-id="493" stroke="none" target-height="32.807373" target-width="58.588623" target-x="418.76868" target-y="315.28955"/><path d="M 426.24 264.84 L 431.36 262.91 L 437.90 217.02 L 432.78 218.95 L 426.24 264.84 Z M 433.70 212.50 L 438.82 210.57 L 441.82 189.54 L 436.70 191.48 L 433.70 212.50 Z" fill="#525566" fill-rule="nonzero" group-id="1,57" node-id="498" stroke="none" target-height="75.29549" target-width="15.580627" target-x="426.24384" target-y="189.54247"/><path d="M 436.70 191.48 L 441.82 189.55 L 436.59 186.53 L 431.47 188.46 L 436.70 191.48 Z M 479.70 295.71 L 484.82 293.78 L 431.36 262.90 L 426.24 264.84 L 479.70 295.71 Z M 487.17 243.37 L 492.29 241.44 L 438.83 210.57 L 433.71 212.50 L 487.17 243.37 Z M 495.40 225.37 L 500.52 223.44 L 495.29 220.42 L 490.17 222.35 L 495.40 225.37 Z" fill="#5b5e71" fill-rule="nonzero" group-id="1,58" node-id="503" stroke="none" target-height="109.18199" target-width="74.27942" target-x="426.24393" target-y="186.52538"/><path d="M 433.70 212.50 L 487.17 243.38 L 490.17 222.35 L 495.40 225.37 L 451.14 535.65 L 445.91 532.63 L 448.92 511.54 L 395.45 480.67 L 392.44 501.76 L 387.21 498.74 L 431.47 188.46 L 436.70 191.48 L 433.70 212.50 Z M 396.37 474.23 L 449.84 505.10 L 456.38 459.22 L 402.91 428.34 L 396.37 474.23 Z M 411.30 369.56 L 464.77 400.44 L 471.31 354.55 L 417.85 323.67 L 411.30 369.56 Z M 418.77 317.23 L 472.24 348.11 L 478.78 302.21 L 425.31 271.34 L 418.77 317.23 Z M 426.24 264.85 L 479.70 295.70 L 486.24 249.82 L 432.78 218.94 L 426.24 264.85 Z M 403.83 421.89 L 457.30 452.77 L 463.85 406.87 L 410.38 376.00 L 403.83 421.89 Z" fill="#474b59" fill-rule="nonzero" group-id="1,59" node-id="508" stroke="none" target-height="347.19098" target-width="108.19699" target-x="387.2059" target-y="188.45555"/><path d="M 451.14 535.65 L 456.26 533.72 L 500.53 223.44 L 495.41 225.37 L 451.14 535.65 Z" fill="#525566" fill-rule="nonzero" group-id="1,60" node-id="513" stroke="none" target-height="312.20996" target-width="49.388306" target-x="451.14285" target-y="223.44481"/><path d="M 598.28 92.29 L 598.23 104.90 C 598.20 113.25 592.71 121.60 581.77 127.96 C 559.69 140.80 523.67 140.80 501.43 127.96 C 490.24 121.50 484.65 113.01 484.67 104.53 L 484.74 91.92 C 484.71 100.41 490.30 108.90 501.49 115.36 C 523.73 128.20 559.74 128.20 581.84 115.36 C 592.78 109.00 598.26 100.66 598.28 92.29 Z" fill="#37617b" fill-rule="nonzero" group-id="1,61" node-id="518" stroke="none" target-height="48.876297" target-width="113.63254" target-x="484.65134" target-y="91.92381"/><path d="M 484.74 92.00 C 484.74 97.81 487.39 103.64 492.66 108.80 C 494.11 110.22 495.73 111.56 497.58 112.87 C 498.77 113.75 500.08 114.56 501.50 115.38 C 506.60 118.29 512.07 120.50 517.77 121.96 C 520.31 122.63 522.89 123.19 525.54 123.65 C 536.25 125.46 547.18 125.46 557.89 123.65 C 560.55 123.19 563.13 122.63 565.64 121.96 C 571.31 120.51 576.76 118.30 581.84 115.38 C 582.51 114.99 583.18 114.56 583.81 114.14 C 586.77 112.31 589.46 110.07 591.81 107.50 C 595.23 103.72 597.32 99.61 597.99 95.44 C 598.18 94.40 598.28 93.34 598.28 92.29 C 598.31 83.80 592.72 75.32 581.51 68.84 C 559.28 56.04 523.25 56.04 501.22 68.84 C 490.22 75.25 484.74 83.63 484.74 92.00 Z M 491.63 95.61 C 492.87 89.47 497.61 83.45 505.81 78.67 C 525.33 67.33 557.22 67.33 576.92 78.67 C 585.27 83.45 590.08 89.53 591.38 95.82 C 590.08 102.01 585.33 107.99 577.24 112.73 C 557.69 124.08 525.75 124.08 506.09 112.73 C 497.75 107.95 492.91 101.87 491.63 95.61 Z" fill="#4c7891" fill-rule="nonzero" group-id="1,62" node-id="523" stroke="none" target-height="69.4202" target-width="113.57703" target-x="484.7379" target-y="56.044125"/><path d="M 491.63 95.61 C 492.87 89.47 497.61 83.45 505.81 78.67 C 525.33 67.33 557.22 67.33 576.92 78.67 C 585.27 83.45 590.08 89.53 591.38 95.82 C 593.26 87.20 588.45 78.11 576.92 71.50 C 557.23 60.15 525.33 60.15 505.81 71.50 C 494.50 78.08 489.76 87.02 491.63 95.61 Z" fill="#37617b" fill-rule="nonzero" group-id="1,63" node-id="528" stroke="none" target-height="35.67456" target-width="103.503174" target-x="489.7556" target-y="60.148163"/><path d="M 582.56 121.56 C 582.56 123.11 583.10 124.18 583.97 124.71 L 598.24 132.96 C 597.37 132.48 596.79 131.36 596.79 129.86 C 596.79 126.71 599.02 122.92 601.73 121.31 C 603.10 120.54 604.31 120.45 605.23 120.97 L 590.96 112.67 C 590.13 112.14 588.87 112.19 587.47 113.02 C 584.74 114.57 582.56 118.40 582.56 121.56 Z" fill="#d4dae8" fill-rule="nonzero" group-id="1,64" node-id="533" stroke="none" target-height="20.81868" target-width="22.66986" target-x="582.5615" target-y="112.14398"/><path d="M 601.72 121.31 C 604.45 119.74 606.66 121.00 606.68 124.15 C 606.68 127.25 604.48 131.07 601.75 132.66 C 599.01 134.23 596.79 132.97 596.79 129.85 C 596.78 126.71 598.98 122.90 601.72 121.31 Z" fill="#f34858" fill-rule="nonzero" group-id="1,65" node-id="538" stroke="none" target-height="14.493568" target-width="9.901306" target-x="596.7793" target-y="119.7371"/><path d="M 652.09 144.13 C 650.70 143.34 648.77 143.44 646.64 144.68 C 642.33 147.11 638.96 153.06 638.96 157.96 C 638.96 160.34 639.80 162.03 641.19 162.82 L 593.82 134.68 C 592.42 133.89 591.59 132.20 591.59 129.77 C 591.59 124.91 594.95 118.97 599.27 116.54 C 601.40 115.29 603.33 115.15 604.72 115.99 L 652.09 144.13 Z" fill="#f9607f" fill-rule="nonzero" group-id="1,66" node-id="543" stroke="none" target-height="47.671097" target-width="60.502563" target-x="591.5885" target-y="115.1528"/><path d="M 646.62 144.66 C 650.86 142.22 654.32 144.19 654.34 149.06 C 654.35 153.90 650.91 159.85 646.67 162.30 C 642.40 164.77 638.97 162.77 638.95 157.94 C 638.94 153.06 642.35 147.13 646.62 144.66 L 646.62 144.66 Z" fill="#f34858" fill-rule="nonzero" group-id="1,67" node-id="548" stroke="none" target-height="22.551651" target-width="15.407288" target-x="638.94446" target-y="142.21767"/><path d="M 576.93 78.67 C 557.24 67.33 525.32 67.33 505.80 78.67 C 497.62 83.46 492.88 89.45 491.62 95.61 C 492.92 101.89 497.74 107.96 506.08 112.74 C 525.77 124.08 557.69 124.08 577.25 112.74 C 585.35 108.00 590.09 102.01 591.39 95.81 C 590.09 89.53 585.27 83.46 576.93 78.67 Z" fill="#748bfd" fill-opacity="0.2509804" fill-rule="nonzero" group-id="1,68" node-id="553" stroke="none" target-height="56.753197" target-width="99.76907" target-x="491.6224" target-y="67.33177"/><path d="M 387.69 935.32 L 387.69 947.15 L 393.10 950.29 L 393.10 960.83 L 489.36 1016.12 L 497.77 1011.28 L 503.33 1014.48 L 525.78 1001.59 L 525.78 995.11 L 615.98 943.02 L 621.10 946.01 L 643.47 933.12 L 643.47 927.13 L 654.60 920.72 L 654.52 910.10 L 665.50 903.76 L 665.50 891.93 L 584.98 845.69 L 584.98 837.99 L 508.17 793.32 L 476.11 811.84 L 476.03 811.84 L 463.00 819.47 L 461.43 820.32 L 461.22 756.48 L 498.91 734.74 L 498.77 679.31 L 489.72 674.11 L 409.91 720.14 L 410.13 775.58 L 419.11 780.78 L 441.56 767.81 L 441.76 831.65 L 430.86 837.99 L 431.08 910.24 L 387.69 935.32 Z" fill="#d4dae8" fill-rule="nonzero" group-id="1,69" node-id="558" stroke="none" target-height="342.008" target-width="277.811" target-x="387.68637" target-y="674.11475"/><path d="M 447.69 918.03 L 442.07 914.75 L 441.47 740.12 L 447.09 743.39 L 447.69 918.03 Z" fill="#474b59" fill-rule="nonzero" group-id="1,70" node-id="563" stroke="none" target-height="177.90796" target-width="6.222748" target-x="441.47006" target-y="740.12354"/><path d="M 461.16 735.27 L 461.76 909.90 L 447.69 918.03 L 447.09 743.40 L 461.16 735.27 Z" fill="#5b5e71" fill-rule="nonzero" group-id="1,71" node-id="568" stroke="none" target-height="182.76001" target-width="14.66684" target-x="447.09412" target-y="735.2715"/><path d="M 455.54 743.39 L 449.91 740.12 L 463.98 732.00 L 469.61 735.27 L 455.54 743.39 Z" fill="#d6a140" fill-rule="nonzero" group-id="1,72" node-id="573" stroke="none" target-height="11.390015" target-width="19.692291" target-x="449.91403" target-y="732.00244"/><path d="M 418.97 725.41 L 409.94 720.16 L 410.10 775.55 L 419.12 780.79 L 418.97 725.41 Z" fill="#6eba6e" fill-rule="nonzero" group-id="1,73" node-id="578" stroke="none" target-height="60.628662" target-width="9.184479" target-x="409.9387" target-y="720.1636"/><path d="M 498.77 679.35 L 489.74 674.10 L 409.95 720.16 L 418.97 725.41 L 498.77 679.35 Z" fill="#9ad898" fill-rule="nonzero" group-id="1,74" node-id="583" stroke="none" target-height="51.310364" target-width="88.82019" target-x="409.94656" target-y="674.0991"/><path d="M 418.97 725.41 L 419.13 780.78 L 498.92 734.72 L 498.77 679.35 L 418.97 725.41 Z" fill="#75ca75" fill-rule="nonzero" group-id="1,75" node-id="588" stroke="none" target-height="101.438965" target-width="79.950806" target-x="418.97348" target-y="679.3452"/><path d="M 493.32 724.23 L 493.25 688.92 L 424.51 728.60 L 424.57 763.91 L 493.32 724.23 Z" fill="#e4e8f4" fill-rule="nonzero" group-id="1,76" node-id="593" stroke="none" target-height="74.996155" target-width="68.8049" target-x="424.51096" target-y="688.9155"/><path d="M 489.94 722.75 L 489.88 694.28 L 427.89 730.06 L 427.94 758.55 L 489.94 722.75 Z" fill="#4c7891" fill-rule="nonzero" group-id="1,77" node-id="598" stroke="none" target-height="64.26782" target-width="62.04651" target-x="427.89017" target-y="694.2798"/><path d="M 476.44 738.11 L 476.44 743.61 L 439.25 765.09 L 439.23 759.59 L 476.44 738.11 Z" fill="#f9607f" fill-rule="nonzero" group-id="1,78" node-id="603" stroke="none" target-height="26.978516" target-width="37.2106" target-x="439.233" target-y="738.1069"/><path d="M 488.34 731.24 L 488.35 736.74 L 481.45 740.72 L 481.43 735.22 L 488.34 731.24 Z" fill="#ffffff" fill-rule="nonzero" group-id="1,79" node-id="608" stroke="none" target-height="9.483765" target-width="6.9237976" target-x="481.42966" target-y="731.23834"/><path d="M 608.08 932.04 L 608.11 938.50 L 621.10 946.04 L 621.08 939.60 L 608.08 932.04 Z" fill="#3f434f" fill-rule="nonzero" group-id="1,80" node-id="613" stroke="none" target-height="13.9973755" target-width="13.012695" target-x="608.08276" target-y="932.04486"/><path d="M 621.08 939.60 L 621.10 946.04 L 643.51 933.10 L 643.49 926.66 L 621.08 939.60 Z" fill="#525566" fill-rule="nonzero" group-id="1,81" node-id="618" stroke="none" target-height="19.38507" target-width="22.425598" target-x="621.0797" target-y="926.6572"/><path d="M 608.08 932.04 L 621.08 939.60 L 643.49 926.66 L 630.50 919.11 L 608.08 932.04 Z" fill="#000000" fill-rule="nonzero" group-id="1,82" node-id="623" stroke="none" target-height="20.487915" target-width="35.4068" target-x="608.08276" target-y="919.11084"/><path d="M 490.35 1000.51 L 490.37 1006.95 L 503.36 1014.51 L 503.34 1008.06 L 490.35 1000.51 Z" fill="#3f434f" fill-rule="nonzero" group-id="1,83" node-id="628" stroke="none" target-height="13.9973755" target-width="13.012726" target-x="490.34628" target-y="1000.51074"/><path d="M 503.34 1008.06 L 503.36 1014.51 L 525.77 1001.57 L 525.75 995.12 L 503.34 1008.06 Z" fill="#525566" fill-rule="nonzero" group-id="1,84" node-id="633" stroke="none" target-height="19.38507" target-width="22.433502" target-x="503.33536" target-y="995.12305"/><path d="M 490.35 1000.51 L 503.34 1008.06 L 525.75 995.12 L 512.76 987.57 L 490.35 1000.51 Z" fill="#000000" fill-rule="nonzero" group-id="1,85" node-id="638" stroke="none" target-height="20.487915" target-width="35.40683" target-x="490.34628" target-y="987.56934"/><path d="M 393.06 949.74 L 393.10 960.82 L 489.33 1016.11 L 489.30 1005.02 L 393.06 949.74 Z" fill="#bac1ce" fill-rule="nonzero" group-id="1,86" node-id="643" stroke="none" target-height="66.37103" target-width="96.27179" target-x="393.05844" target-y="949.7363"/><path d="M 489.30 1005.02 L 489.33 1016.11 L 654.57 920.70 L 654.54 909.63 L 489.30 1005.02 Z" fill="#cad0dd" fill-rule="nonzero" group-id="1,87" node-id="648" stroke="none" target-height="106.47998" target-width="165.27405" target-x="489.29865" target-y="909.62695"/><path d="M 393.06 949.74 L 489.30 1005.03 L 654.54 909.63 L 558.31 854.33 L 393.06 949.74 Z" fill="#697c88" fill-rule="nonzero" group-id="1,88" node-id="653" stroke="none" target-height="150.70105" target-width="261.48203" target-x="393.05844" target-y="854.33105"/><path d="M 387.67 935.34 L 387.70 947.15 L 489.27 1005.54 L 489.24 993.72 L 387.67 935.34 Z" fill="#37617b" fill-rule="nonzero" group-id="1,89" node-id="658" stroke="none" target-height="70.199036" target-width="101.604004" target-x="387.67062" target-y="935.3374"/><path d="M 489.24 993.72 L 489.28 1005.54 L 665.53 903.78 L 665.49 891.97 L 489.24 993.72 Z" fill="#416e84" fill-rule="nonzero" group-id="1,90" node-id="663" stroke="none" target-height="113.56897" target-width="176.293" target-x="489.2357" target-y="891.96686"/><path d="M 387.67 935.34 L 489.24 993.72 L 665.49 891.96 L 563.92 833.58 L 387.67 935.34 Z" fill="#4c7891" fill-rule="nonzero" group-id="1,91" node-id="668" stroke="none" target-height="160.14606" target-width="277.819" target-x="387.67062" target-y="833.57513"/><path d="M 430.87 837.96 L 507.68 882.60 L 584.99 837.96 L 508.19 793.33 L 430.87 837.96 Z" fill="#fed57a" fill-rule="nonzero" group-id="1,92" node-id="673" stroke="none" target-height="89.269104" target-width="154.12" target-x="430.86768" target-y="793.33203"/><path d="M 430.87 837.96 L 431.11 923.25 L 507.92 967.89 L 507.68 882.60 L 430.87 837.96 Z" fill="#efac41" fill-rule="nonzero" group-id="1,93" node-id="678" stroke="none" target-height="129.93" target-width="77.05197" target-x="430.86768" target-y="837.9629"/><path d="M 507.68 882.60 L 507.92 967.89 L 585.23 923.26 L 585.00 837.96 L 507.68 882.60 Z" fill="#f9bb4a" fill-rule="nonzero" group-id="1,94" node-id="683" stroke="none" target-height="129.93" target-width="77.54831" target-x="507.68344" target-y="837.9629"/><path d="M 563.12 899.05 L 563.02 890.29 L 529.79 909.48 L 529.90 918.23 L 563.12 899.05 Z" fill="#4c7891" fill-rule="nonzero" group-id="1,95" node-id="688" stroke="none" target-height="27.939575" target-width="33.32727" target-x="529.79395" target-y="890.289"/><path d="M 552.90 856.47 L 552.90 882.60 L 546.42 879.88 L 539.81 889.67 L 539.81 864.05 L 552.90 856.47 Z" fill="#f34858" fill-rule="nonzero" group-id="1,96" node-id="693" stroke="none" target-height="33.19342" target-width="13.091492" target-x="539.80554" target-y="856.4736"/><path d="M 476.07 811.87 L 552.90 856.47 L 539.80 864.05 L 462.97 819.45 L 476.07 811.87 Z" fill="#f9607f" fill-rule="nonzero" group-id="1,97" node-id="698" stroke="none" target-height="52.176636" target-width="89.93082" target-x="462.96616" target-y="811.8746"/><path d="M 437.03 730.66 L 437.08 748.59 L 434.58 750.03 L 434.54 734.80 L 431.37 736.63 L 431.36 733.94 L 437.03 730.66 Z M 445.80 725.17 C 447.09 724.42 448.24 724.24 449.22 724.63 C 450.21 725.02 450.70 726.01 450.70 727.65 C 450.70 728.58 450.50 729.56 450.09 730.65 C 449.69 731.73 448.91 733.26 447.80 735.22 L 444.15 741.61 L 451.22 737.52 L 451.23 740.42 L 440.56 746.58 L 440.56 744.01 L 445.27 735.82 C 446.34 733.97 447.07 732.57 447.52 731.62 C 447.92 730.84 448.15 729.98 448.18 729.10 C 448.18 728.39 447.95 727.91 447.46 727.70 C 446.99 727.46 446.39 727.54 445.65 727.97 C 444.38 728.71 443.31 730.07 442.47 732.07 L 440.34 731.88 C 441.03 730.31 441.79 728.97 442.61 727.91 C 443.43 726.83 444.50 725.91 445.80 725.17 Z M 463.21 715.55 L 463.21 717.91 L 459.46 724.94 C 460.89 724.16 462.01 724.03 462.81 724.57 C 463.62 725.08 464.02 726.02 464.03 727.39 C 464.03 729.20 463.50 730.95 462.43 732.62 C 461.37 734.29 459.96 735.61 458.26 736.59 C 456.57 737.57 454.92 737.91 453.28 737.59 L 454.39 734.51 C 455.78 734.77 457.22 734.49 458.41 733.73 C 459.33 733.21 460.08 732.54 460.67 731.71 C 461.25 730.88 461.53 730.01 461.53 729.11 C 461.52 728.18 461.22 727.61 460.54 727.47 C 459.89 727.31 458.97 727.55 457.81 728.22 C 457.21 728.57 456.65 728.99 456.14 729.47 L 456.14 727.16 L 459.74 720.25 L 454.09 723.51 L 454.09 720.82 L 463.21 715.55 Z" fill="#e4e8f4" fill-rule="nonzero" group-id="1,98" node-id="703" stroke="none" target-height="34.48523" target-width="32.66559" target-x="431.36386" target-y="715.54736"/></g></g></svg>