<svg height="1024" node-id="1" sillyvg="true" template-height="1024" template-width="1101" version="1.1" viewBox="0 0 1101 1024" width="1101" xmlns="http://www.w3.org/2000/svg" xmlns:xlink="http://www.w3.org/1999/xlink"><defs node-id="63"></defs><g node-id="188"><path d="M 0.20 0.00 L 1100.80 0.00 L 1100.80 1024.00 L 0.20 1024.00 Z" fill="#e1d0c4" fill-rule="nonzero" group-id="1" node-id="67" stroke="none" target-height="1024" target-width="1100.6" target-x="0.196777" target-y="0"/></g><path d="M 18.00 0.00 L 1083.70 0.00 L 1083.70 1024.00 L 18.00 1024.00 L 18.00 0.00 Z M 252.59 220.41 C 243.33 256.23 259.64 297.42 292.86 314.80 C 283.68 334.54 274.97 354.60 268.35 375.36 C 254.82 420.72 252.59 472.85 279.19 514.09 C 274.79 517.47 270.99 521.36 267.75 525.76 C 272.61 532.90 278.96 519.18 281.18 516.59 C 282.76 525.90 274.42 532.20 270.76 539.89 C 258.43 562.83 259.87 589.89 261.49 615.05 C 259.40 613.71 255.23 611.06 253.15 609.72 C 257.13 585.95 247.68 554.12 269.23 537.25 C 267.51 534.98 265.80 532.71 264.04 530.44 C 262.32 533.31 258.85 539.11 257.13 541.98 C 245.23 539.62 234.52 533.27 222.71 530.44 C 222.71 516.31 226.23 501.90 222.80 488.00 C 221.59 487.58 219.19 486.75 218.03 486.28 C 218.31 501.48 216.73 516.59 215.06 531.69 C 209.36 530.53 203.62 529.33 197.87 528.12 C 201.49 523.40 205.61 519.14 210.10 515.24 C 212.84 503.20 210.43 491.15 210.10 479.15 L 212.24 476.97 C 211.49 467.10 205.98 446.20 191.99 446.30 C 175.59 456.91 173.78 479.84 168.63 497.22 L 174.33 492.45 L 176.42 481.05 C 178.18 482.95 181.66 486.66 183.41 488.56 C 182.77 498.98 182.95 510.33 175.03 518.35 C 174.43 510.15 173.69 501.90 172.81 493.74 C 170.44 496.57 165.76 502.27 163.40 505.10 C 158.58 493.19 149.96 482.53 138.61 476.37 C 131.10 471.60 123.46 479.80 121.88 486.84 C 114.89 507.09 127.49 526.50 137.36 543.28 C 125.96 548.28 116.23 560.14 125.78 571.96 C 125.50 577.56 126.24 583.12 126.79 588.68 C 133.56 594.99 142.92 593.87 151.40 594.80 C 157.47 601.75 163.58 608.89 167.20 617.46 C 161.54 612.27 156.82 606.11 152.42 599.80 C 150.33 602.12 148.29 604.44 146.30 606.75 C 163.54 617.78 169.93 638.96 177.11 657.07 C 165.44 658.09 153.76 659.35 142.04 659.86 C 140.37 674.91 129.34 698.96 149.54 705.59 C 149.54 714.53 149.64 723.52 149.91 732.55 C 140.69 749.10 120.77 761.84 123.60 782.97 C 123.92 823.32 123.00 863.73 123.83 904.09 C 189.07 905.61 254.35 904.50 319.59 904.73 C 319.41 910.76 319.22 916.74 319.08 922.76 C 328.17 925.31 337.62 926.19 347.02 926.00 C 482.92 926.19 618.82 926.42 754.72 926.42 C 761.91 926.14 769.32 926.65 776.32 924.66 C 784.05 921.46 779.98 912.10 781.09 905.89 C 841.97 905.29 902.86 906.59 963.69 905.20 C 972.08 905.94 969.62 894.82 970.55 889.86 C 969.44 847.70 972.68 805.21 969.53 763.18 C 956.10 742.05 943.49 717.82 920.79 705.36 C 917.82 699.42 920.00 688.86 912.40 686.68 C 879.87 682.56 846.75 686.22 814.26 681.68 C 836.04 650.26 851.38 612.92 848.64 574.04 C 846.88 563.11 850.40 548.10 837.11 543.14 C 850.13 599.76 829.69 665.88 782.43 700.91 C 798.05 682.79 813.25 663.89 821.91 641.37 C 839.66 602.26 840.44 555.51 819.50 517.47 C 832.75 523.95 830.81 543.04 843.87 550.60 C 843.50 535.08 834.61 523.35 827.28 510.89 C 837.76 494.95 846.56 477.39 848.51 458.16 C 853.88 409.00 836.97 361.32 818.67 316.61 C 836.50 306.78 851.42 291.21 858.75 272.03 C 872.88 236.22 860.74 193.22 833.17 167.22 C 793.55 130.25 720.58 126.54 685.17 171.16 C 642.64 154.25 596.30 149.15 550.80 149.15 C 509.24 150.36 466.99 155.18 428.06 170.60 C 420.46 162.08 412.45 153.51 401.74 148.97 C 344.43 123.06 267.56 158.70 252.59 220.41 Z" fill="#e1d0c4" fill-rule="nonzero" node-id="70" stroke="none" target-height="1024" target-width="1065.7" target-x="18" target-y="0"/><path d="M 437.70 199.98 C 446.18 183.86 466.89 181.08 483.20 178.99 C 472.04 191.09 453.41 195.39 437.70 199.98 Z" fill="#e1d0c4" fill-rule="nonzero" node-id="72" stroke="none" target-height="20.98999" target-width="45.5" target-x="437.702" target-y="178.991"/><path d="M 291.93 333.84 C 307.69 290.19 327.47 244.00 367.04 216.89 C 362.78 227.09 358.47 237.28 353.14 247.01 C 332.01 285.10 321.36 327.68 308.15 368.87 C 298.23 400.10 289.48 433.74 297.96 466.36 C 302.82 483.32 311.21 502.18 329.37 508.20 C 327.43 496.57 324.78 485.13 322.47 473.59 C 327.38 475.35 332.29 477.02 337.25 478.59 C 346.88 481.47 356.75 483.64 366.81 484.62 C 356.48 485.45 343.69 486.19 338.36 496.80 C 336.74 515.61 338.22 534.66 336.41 553.52 C 304.12 537.67 279.79 506.72 270.11 472.34 C 260.56 425.26 274.09 377.26 291.93 333.84 Z" fill="#e1d0c4" fill-rule="nonzero" node-id="74" stroke="none" target-height="336.623" target-width="106.47803" target-x="260.563" target-y="216.893"/><path d="M 763.34 233.90 C 792.16 264.06 805.37 304.56 819.64 342.79 C 833.54 379.39 843.96 418.77 839.15 458.20 C 833.54 497.64 804.30 529.98 770.20 548.47 C 768.76 538.55 765.47 527.24 771.36 518.12 C 780.58 505.47 792.35 494.53 799.44 480.40 C 814.59 454.68 809.08 423.18 803.75 395.42 C 792.12 347.79 780.30 300.16 764.32 253.78 C 761.77 247.43 762.56 240.52 763.34 233.90 Z" fill="#e1d0c4" fill-rule="nonzero" node-id="76" stroke="none" target-height="314.56702" target-width="82.19794" target-x="761.767" target-y="233.89801"/><path d="M 187.91 467.29 C 179.34 459.92 198.66 446.02 199.26 459.69 C 200.74 477.39 211.77 498.70 199.91 514.32 C 196.99 498.33 199.45 480.45 187.91 467.29 Z" fill="#e1d0c4" fill-rule="nonzero" node-id="78" stroke="none" target-height="68.298004" target-width="32.434006" target-x="179.338" target-y="446.019"/><path d="M 187.91 485.40 C 179.71 487.95 176.00 471.23 183.88 469.19 C 187.82 472.99 189.85 480.17 187.91 485.40 Z" fill="#e1d0c4" fill-rule="nonzero" node-id="80" stroke="none" target-height="18.765015" target-width="13.853973" target-x="176.001" target-y="469.187"/><path d="M 129.57 489.99 C 124.15 484.06 138.24 476.65 139.58 484.62 C 137.08 485.96 132.08 488.65 129.57 489.99 Z" fill="#e1d0c4" fill-rule="nonzero" node-id="82" stroke="none" target-height="13.343994" target-width="15.43" target-x="124.15299" target-y="476.647"/><path d="M 751.94 496.94 L 754.12 493.98 C 759.87 510.89 756.21 528.96 756.99 546.47 C 756.02 608.84 759.08 671.35 754.63 733.57 C 742.54 736.77 729.93 736.31 717.56 736.12 C 644.96 735.89 572.39 734.68 499.79 735.80 C 450.95 736.40 402.02 734.13 353.19 736.31 L 353.56 735.71 C 354.30 734.45 355.83 731.95 356.61 730.70 C 357.12 727.04 357.45 723.33 357.96 719.67 C 359.72 720.78 363.29 722.96 365.05 724.03 C 451.55 727.18 538.20 724.35 624.80 725.37 C 667.66 724.91 710.75 727.74 753.47 723.19 C 750.23 722.08 743.74 719.90 740.50 718.79 C 740.36 656.84 740.45 594.94 740.73 532.99 C 740.78 522.56 739.62 512.18 738.13 501.90 C 744.11 502.83 748.70 501.16 751.94 496.94 Z" fill="#e1d0c4" fill-rule="nonzero" node-id="84" stroke="none" target-height="242.794" target-width="406.681" target-x="353.18503" target-y="493.976"/><path d="M 208.85 658.00 C 214.23 633.03 223.59 604.11 247.63 591.33 C 248.70 620.75 256.81 650.82 277.20 672.88 C 279.05 675.24 282.66 679.92 284.52 682.23 C 268.76 692.94 255.93 707.02 242.12 719.95 C 244.21 725.09 246.52 730.14 248.98 735.15 C 248.52 735.15 247.54 735.19 247.08 735.19 C 243.60 734.96 236.61 734.55 233.09 734.31 L 236.89 730.93 C 236.28 729.96 235.17 727.97 234.62 726.99 C 230.63 718.19 225.26 710.13 219.42 702.44 C 230.12 692.57 237.40 678.99 233.13 664.16 C 225.07 661.99 216.96 659.99 208.85 658.00 Z" fill="#e1d0c4" fill-rule="nonzero" node-id="86" stroke="none" target-height="143.86993" target-width="75.66501" target-x="208.853" target-y="591.325"/><path d="M 257.78 622.04 C 258.66 620.42 260.47 617.27 261.35 615.65 L 261.72 614.91 C 267.88 642.57 282.43 667.78 304.12 686.08 C 294.25 680.29 285.21 673.06 277.52 664.53 C 269.64 651.00 262.09 637.20 257.78 622.04 Z" fill="#e1d0c4" fill-rule="nonzero" node-id="88" stroke="none" target-height="71.170044" target-width="46.335022" target-x="257.783" target-y="614.91"/><path d="M 145.24 666.90 C 154.97 666.39 164.74 666.34 174.52 666.71 C 192.31 669.12 210.29 668.01 228.17 667.13 C 208.11 680.94 181.98 673.43 159.37 673.80 C 160.06 676.07 161.41 680.61 162.10 682.88 C 184.53 681.86 207.09 682.00 229.15 677.09 C 227.25 681.49 225.30 685.85 223.31 690.20 C 200.84 685.25 177.76 687.52 154.97 687.56 C 152.65 690.30 147.97 695.86 145.65 698.64 C 145.00 692.15 144.63 685.66 144.22 679.18 C 149.73 677.18 155.24 675.19 160.62 673.01 C 156.77 671.48 149.08 668.43 145.24 666.90 Z" fill="#e1d0c4" fill-rule="nonzero" node-id="90" stroke="none" target-height="32.29602" target-width="84.931015" target-x="144.216" target-y="666.341"/><path d="M 842.90 744.32 C 869.36 736.63 895.54 725.74 923.52 725.42 C 924.40 726.21 926.21 727.83 927.09 728.62 C 905.45 734.27 878.44 735.10 864.40 755.16 C 870.89 754.24 877.42 753.17 883.91 752.11 C 883.40 753.64 882.38 756.69 881.87 758.27 C 872.65 757.81 863.43 757.48 854.25 757.25 C 850.45 752.94 846.65 748.63 842.90 744.32 Z" fill="#e1d0c4" fill-rule="nonzero" node-id="92" stroke="none" target-height="32.85193" target-width="84.19" target-x="842.9" target-y="725.4181"/><path d="M 131.89 779.03 L 132.68 779.40 C 136.90 781.48 141.11 783.57 145.33 785.70 C 145.56 822.72 144.35 859.79 146.44 896.81 C 141.34 896.86 136.25 896.90 131.15 897.00 C 131.80 857.66 131.01 818.32 131.89 779.03 Z" fill="#e1d0c4" fill-rule="nonzero" node-id="94" stroke="none" target-height="117.96796" target-width="15.429001" target-x="131.011" target-y="779.028"/><path d="M 252.59 220.41 C 267.56 158.70 344.43 123.06 401.75 148.97 C 412.45 153.51 420.46 162.08 428.06 170.60 C 466.99 155.18 509.24 150.36 550.80 149.15 C 596.31 149.15 642.64 154.25 685.18 171.16 C 720.58 126.54 793.55 130.25 833.17 167.22 C 860.74 193.22 872.88 236.22 858.75 272.03 C 851.42 291.21 836.50 306.78 818.67 316.61 C 836.97 361.32 853.88 409.00 848.51 458.16 C 846.56 477.39 837.76 494.95 827.29 510.89 C 834.61 523.35 843.50 535.07 843.87 550.60 C 830.81 543.04 832.75 523.95 819.50 517.47 C 840.44 555.51 839.66 602.26 821.91 641.37 C 813.25 663.88 798.05 682.79 782.43 700.91 C 829.69 665.88 850.13 599.76 837.11 543.14 C 850.41 548.10 846.88 563.11 848.64 574.04 C 851.38 612.92 836.04 650.26 814.26 681.68 C 846.75 686.22 879.88 682.56 912.40 686.68 C 920.00 688.86 917.82 699.42 920.79 705.36 C 943.49 717.82 956.10 742.05 969.53 763.18 C 972.68 805.21 969.44 847.70 970.55 889.86 C 969.62 894.82 972.08 905.94 963.70 905.20 C 902.86 906.59 841.97 905.29 781.09 905.89 C 779.98 912.10 784.05 921.46 776.32 924.66 C 769.32 926.65 761.91 926.14 754.72 926.42 C 618.82 926.42 482.92 926.19 347.02 926.00 C 337.62 926.19 328.17 925.31 319.08 922.76 C 319.22 916.74 319.41 910.76 319.59 904.73 C 254.36 904.50 189.07 905.61 123.83 904.09 C 123.00 863.73 123.92 823.32 123.60 782.97 C 120.77 761.84 140.69 749.10 149.92 732.55 C 149.64 723.52 149.54 714.53 149.54 705.59 C 129.34 698.96 140.37 674.91 142.04 659.85 C 153.21 660.18 164.33 661.89 174.52 666.71 C 164.74 666.34 154.97 666.39 145.24 666.90 C 149.08 668.43 156.77 671.48 160.62 673.01 C 155.24 675.19 149.73 677.18 144.22 679.18 C 144.63 685.66 145.00 692.15 145.65 698.64 C 166.32 701.51 187.45 702.39 208.21 699.70 C 214.74 699.61 219.37 694.74 223.31 690.20 C 225.30 685.85 227.25 681.49 229.15 677.09 C 207.09 682.00 184.53 681.86 162.10 682.88 C 161.41 680.61 160.06 676.07 159.37 673.80 C 181.98 673.43 208.11 680.94 228.18 667.13 L 233.13 664.16 C 237.40 678.99 230.12 692.57 219.42 702.44 C 225.26 710.13 230.63 718.19 234.62 726.99 C 209.69 736.03 183.23 737.51 157.05 734.55 C 147.97 747.06 138.84 759.52 130.13 772.26 C 246.80 773.79 363.47 770.32 480.19 771.66 C 483.06 762.62 485.89 753.54 488.76 744.51 C 450.77 745.39 412.73 743.95 374.73 744.28 C 365.47 743.91 355.74 744.79 346.93 741.26 C 339.61 734.50 337.06 724.21 331.41 716.20 C 307.64 711.61 283.08 713.09 259.03 713.79 C 247.40 713.09 250.88 728.06 248.98 735.15 C 246.52 730.14 244.21 725.09 242.12 719.95 C 255.93 707.02 268.76 692.94 284.52 682.23 C 282.67 679.92 279.05 675.24 277.20 672.87 L 277.52 664.53 C 285.21 673.06 294.25 680.29 304.12 686.08 C 282.43 667.78 267.88 642.57 261.72 614.91 L 261.35 615.65 L 261.49 615.05 C 259.87 589.89 258.43 562.83 270.76 539.89 C 274.42 532.20 282.76 525.90 281.18 516.59 C 278.96 519.18 272.61 532.90 267.75 525.76 C 270.99 521.36 274.79 517.47 279.19 514.09 C 252.59 472.85 254.82 420.72 268.35 375.36 C 274.97 354.60 283.69 334.54 292.86 314.80 C 259.64 297.42 243.33 256.23 252.59 220.41 Z M 694.40 175.19 C 703.66 167.50 712.28 158.56 723.73 154.20 C 772.19 135.90 832.38 165.00 846.88 214.99 C 856.85 244.79 847.95 277.18 828.86 301.22 C 856.38 276.34 863.80 232.55 846.38 199.84 C 833.59 173.11 807.04 154.34 778.03 149.29 C 748.42 142.71 713.07 149.38 694.40 175.19 Z M 259.92 240.94 C 259.08 263.74 269.00 286.30 286.14 301.27 C 268.07 281.30 261.40 253.87 265.99 227.55 C 276.41 164.58 359.95 128.53 411.99 166.25 C 394.89 149.43 369.40 147.62 346.79 149.99 C 301.25 153.41 258.01 193.68 259.92 240.94 Z M 367.04 216.89 C 327.47 244.00 307.69 290.19 291.93 333.84 C 274.09 377.26 260.56 425.26 270.11 472.34 C 279.79 506.72 304.12 537.67 336.41 553.52 C 338.22 534.66 336.74 515.61 338.36 496.80 C 343.69 486.19 356.48 485.45 366.81 484.62 C 426.26 485.22 485.80 484.66 545.29 485.40 C 545.99 477.57 546.68 469.79 547.33 461.96 C 536.07 461.17 522.22 463.49 513.78 454.04 C 509.33 446.67 511.00 435.55 519.53 431.93 C 537.55 423.13 559.24 422.67 578.42 427.62 C 588.61 430.22 600.43 442.40 591.86 452.69 C 583.89 464.27 568.60 461.63 556.55 462.61 C 556.50 470.25 556.37 477.94 556.23 485.63 C 608.82 485.68 661.45 484.89 714.09 484.94 C 725.67 486.61 737.49 486.10 749.07 488.09 L 751.02 494.07 C 737.03 491.57 722.75 492.72 708.58 492.49 C 615.77 493.05 522.91 491.66 430.10 492.91 C 402.12 493.56 374.04 491.89 346.14 494.90 C 344.29 564.64 346.19 634.42 345.91 704.15 C 346.56 714.95 343.60 728.11 353.56 735.70 L 353.19 736.31 C 402.02 734.13 450.95 736.40 499.79 735.80 C 572.40 734.68 644.96 735.89 717.56 736.12 C 729.93 736.31 742.54 736.77 754.63 733.57 C 759.08 671.35 756.02 608.84 757.00 546.47 C 756.21 528.96 759.87 510.89 754.12 493.98 C 755.10 492.86 757.04 490.69 758.01 489.57 C 772.80 505.88 763.34 530.16 766.17 550.04 C 767.23 549.81 769.27 549.35 770.34 549.11 L 770.20 548.47 C 804.30 529.98 833.54 497.64 839.15 458.20 C 843.96 418.77 833.54 379.39 819.64 342.79 C 805.37 304.56 792.16 264.06 763.34 233.90 C 743.70 211.80 717.61 196.83 691.06 184.50 C 634.81 158.19 570.64 154.90 509.66 160.64 C 458.41 166.44 406.75 183.44 367.04 216.89 Z M 523.42 443.66 C 535.75 445.42 548.12 442.59 560.44 443.75 C 567.67 443.75 577.22 449.87 581.25 440.50 C 563.41 432.72 538.80 429.48 523.42 443.66 Z M 263.44 708.09 C 275.58 706.28 287.86 705.31 300.18 704.98 C 295.41 700.44 290.31 696.13 285.31 691.83 C 277.15 695.90 270.39 702.25 263.44 708.09 Z M 800.04 700.95 C 826.82 702.53 853.60 700.07 880.38 701.51 C 888.12 702.76 894.56 700.30 899.71 694.14 C 876.35 689.79 852.45 691.73 828.81 691.36 C 818.90 692.75 804.35 688.81 800.04 700.95 Z M 153.44 704.98 C 153.81 713.09 154.18 721.20 154.50 729.31 C 178.69 730.00 207.19 736.96 227.99 721.34 C 223.40 715.97 219.09 710.36 215.11 704.57 C 194.63 706.88 173.96 707.86 153.44 704.98 Z M 802.82 709.15 C 814.08 720.00 826.31 729.73 837.89 740.20 C 867.36 728.75 898.45 723.93 929.04 716.85 C 924.26 713.09 918.70 710.08 912.54 710.03 C 875.98 708.18 839.38 709.71 802.82 709.15 Z M 764.78 711.75 C 763.99 720.97 764.92 731.81 757.41 738.72 C 750.88 745.90 740.41 744.97 731.60 745.34 C 690.41 744.74 649.17 745.71 607.98 744.04 C 610.62 752.89 613.22 761.75 615.58 770.69 C 695.69 771.61 775.81 772.22 855.92 772.54 C 842.16 746.36 819.92 726.72 795.73 710.41 C 785.44 708.64 775.02 710.87 764.78 711.75 Z M 920.60 722.82 L 923.52 725.42 C 895.54 725.74 869.36 736.63 842.90 744.32 C 846.65 748.63 850.45 752.94 854.25 757.25 C 863.43 757.48 872.65 757.81 881.87 758.27 L 879.83 764.25 C 873.25 765.27 866.72 766.61 860.23 768.18 C 867.32 773.05 876.31 771.94 884.46 772.26 C 910.69 772.12 936.96 771.29 963.18 771.20 C 961.01 757.94 951.09 748.22 944.14 737.23 C 938.35 729.40 932.51 715.97 920.60 722.82 Z M 499.65 744.00 L 496.64 743.81 C 490.48 765.91 482.04 787.41 477.46 809.98 C 493.58 815.63 510.86 813.36 527.59 813.83 C 556.41 813.36 585.37 815.59 614.14 812.53 C 611.55 789.08 605.16 766.29 599.50 743.44 C 596.72 743.44 591.25 743.40 588.48 743.35 C 592.55 765.13 597.60 786.72 603.90 807.94 C 566.42 807.94 528.93 807.89 491.45 807.52 C 491.91 805.86 492.89 802.47 493.40 800.81 C 527.68 802.61 562.06 801.27 596.40 801.59 C 590.98 782.60 589.31 762.07 581.76 743.95 C 554.42 743.30 526.94 742.93 499.65 744.00 Z M 131.89 779.03 C 131.01 818.32 131.80 857.66 131.15 897.00 C 136.25 896.90 141.34 896.86 146.44 896.81 C 418.43 896.44 690.41 898.11 962.35 897.83 C 962.54 858.12 962.30 818.37 963.00 778.61 C 847.58 780.70 732.11 777.13 616.65 778.47 C 619.66 789.68 622.25 800.99 624.80 812.30 C 619.47 816.56 613.91 821.28 606.59 820.82 C 575.69 822.72 544.74 821.79 513.83 821.56 C 498.26 820.64 480.52 823.32 468.10 811.69 C 471.06 800.67 474.17 789.64 477.50 778.70 C 362.55 778.47 247.64 780.00 132.68 779.40 L 131.89 779.03 Z M 329.00 905.75 C 328.17 908.72 326.50 914.60 325.71 917.57 C 475.19 918.13 624.71 918.63 774.18 917.80 C 773.86 914.60 773.21 908.21 772.89 905.01 C 624.94 906.17 476.90 903.21 329.00 905.75 Z" fill="#2d0d14" fill-rule="nonzero" node-id="96" stroke="none" target-height="803.585" target-width="851.913" target-x="120.771" target-y="123.065"/><path d="M 446.23 391.16 C 450.54 387.50 462.35 392.08 458.14 398.76 C 455.49 404.50 448.59 408.39 442.61 404.87 C 440.16 399.92 440.94 393.85 446.23 391.16 Z" fill="#2d0d14" fill-rule="nonzero" node-id="98" stroke="none" target-height="20.897003" target-width="22.19397" target-x="440.158" target-y="387.498"/><path d="M 649.59 391.16 C 657.61 384.58 666.13 397.88 658.53 403.95 C 650.29 413.95 638.66 396.39 649.59 391.16 Z" fill="#2d0d14" fill-rule="nonzero" node-id="100" stroke="none" target-height="29.375977" target-width="27.476013" target-x="638.656" target-y="384.579"/><path d="M 538.02 633.95 C 520.97 619.87 530.79 596.98 547.28 587.34 C 545.48 594.20 544.83 601.10 545.34 608.01 C 555.44 611.02 560.72 599.43 566.79 593.73 C 569.99 598.18 573.18 602.63 576.38 607.12 C 567.53 613.29 556.87 614.26 546.50 615.37 C 544.04 613.38 539.17 609.40 536.72 607.40 C 536.35 612.04 535.70 621.30 535.33 625.89 C 545.66 625.15 558.22 620.05 565.82 629.97 C 556.78 632.70 547.38 633.44 538.02 633.95 Z M 566.14 603.51 C 568.37 605.83 568.37 605.83 566.14 603.51 Z" fill="#2d0d14" fill-rule="nonzero" node-id="102" stroke="none" target-height="46.612976" target-width="55.415955" target-x="520.965" target-y="587.34"/><path d="M 357.96 719.67 C 389.70 716.66 421.62 719.44 453.50 718.75 C 549.18 718.05 644.86 719.21 740.50 718.79 C 743.74 719.90 750.23 722.08 753.47 723.19 C 710.75 727.74 667.66 724.91 624.80 725.37 C 538.20 724.35 451.56 727.18 365.05 724.03 C 363.29 722.96 359.72 720.78 357.96 719.67 Z" fill="#2d0d14" fill-rule="nonzero" node-id="104" stroke="none" target-height="11.073975" target-width="395.514" target-x="357.959" target-y="716.661"/><path d="M 233.09 734.31 C 236.61 734.55 243.60 734.96 247.08 735.19 C 240.73 743.95 234.34 752.71 227.06 760.77 C 228.55 751.83 230.40 742.93 233.09 734.31 Z" fill="#2d0d14" fill-rule="nonzero" node-id="106" stroke="none" target-height="26.457947" target-width="20.016998" target-x="227.063" target-y="734.314"/><path d="M 358.10 840.93 C 364.86 838.24 372.42 839.22 379.55 838.89 C 500.02 839.87 620.59 837.46 741.06 839.26 C 755.14 843.90 751.95 868.04 736.47 866.83 C 612.76 866.74 488.99 866.28 365.28 866.55 C 351.29 868.36 344.11 845.98 358.10 840.93 Z M 360.51 847.56 C 353.65 857.52 367.88 860.02 374.69 858.96 C 496.78 857.61 619.06 859.37 741.06 858.82 C 741.01 855.80 740.87 849.83 740.83 846.82 C 635.97 843.66 530.84 847.00 425.89 846.12 C 404.11 846.77 382.15 844.17 360.51 847.56 Z" fill="#2d0d14" fill-rule="nonzero" node-id="108" stroke="none" target-height="30.90509" target-width="411.03702" target-x="344.106" target-y="837.45593"/><path d="M 694.40 175.19 C 713.07 149.38 748.42 142.71 778.03 149.29 C 807.04 154.34 833.59 173.11 846.38 199.84 C 863.80 232.56 856.38 276.34 828.86 301.22 C 847.95 277.18 856.85 244.79 846.88 214.99 C 832.38 165.00 772.19 135.90 723.73 154.20 C 712.28 158.56 703.66 167.50 694.40 175.19 Z" fill="#fdfdfd" fill-rule="nonzero" node-id="110" stroke="none" target-height="165.323" target-width="169.40094" target-x="694.39606" target-y="135.9"/><path d="M 259.92 240.94 C 258.01 193.68 301.25 153.41 346.79 149.99 C 369.40 147.62 394.89 149.43 411.99 166.25 C 359.95 128.53 276.41 164.58 265.99 227.55 C 261.40 253.87 268.07 281.30 286.14 301.27 C 269.00 286.30 259.08 263.74 259.92 240.94 Z" fill="#fdfdfd" fill-rule="nonzero" node-id="112" stroke="none" target-height="172.73601" target-width="153.97098" target-x="258.015" target-y="128.533"/><path d="M 367.04 216.89 C 406.75 183.44 458.41 166.44 509.66 160.64 C 570.63 154.90 634.81 158.19 691.06 184.50 C 717.61 196.83 743.70 211.80 763.34 233.90 C 762.55 240.52 761.77 247.43 764.32 253.78 C 780.30 300.16 792.11 347.79 803.75 395.42 C 809.07 423.18 814.59 454.68 799.44 480.40 C 792.35 494.53 780.58 505.47 771.36 518.12 C 765.47 527.24 768.76 538.55 770.20 548.47 L 770.34 549.11 C 769.27 549.35 767.23 549.81 766.17 550.04 C 763.34 530.16 772.79 505.88 758.01 489.57 C 775.57 484.34 791.05 468.54 788.41 449.08 C 784.24 420.07 763.06 397.51 743.60 377.17 C 719.09 353.49 688.46 330.18 652.65 331.67 C 633.88 331.80 615.72 346.49 614.75 365.81 C 609.83 423.64 655.98 479.66 714.09 484.94 C 661.45 484.89 608.82 485.68 556.23 485.63 C 556.36 477.94 556.50 470.25 556.55 462.61 C 568.60 461.63 583.89 464.27 591.86 452.69 C 600.43 442.40 588.61 430.22 578.42 427.62 C 559.24 422.67 537.55 423.13 519.53 431.93 C 511.00 435.55 509.33 446.67 513.78 454.04 C 522.22 463.49 536.07 461.17 547.33 461.96 C 546.68 469.79 545.99 477.57 545.29 485.40 C 485.80 484.66 426.26 485.22 366.81 484.62 C 356.75 483.64 346.88 481.47 337.25 478.59 C 362.92 480.82 388.86 480.21 414.49 477.53 C 448.13 470.72 470.64 440.60 485.15 411.59 C 494.04 390.32 498.45 361.32 480.98 343.16 C 464.90 326.43 438.58 327.91 418.75 336.48 C 381.08 352.79 350.59 383.37 330.34 418.73 C 320.47 435.18 318.76 455.05 322.47 473.59 C 324.78 485.13 327.42 496.57 329.37 508.20 C 311.21 502.18 302.82 483.32 297.95 466.36 C 289.48 433.74 298.23 400.10 308.15 368.87 C 321.35 327.68 332.01 285.10 353.14 247.01 C 358.47 237.28 362.78 227.09 367.04 216.89 Z M 516.98 179.64 C 538.85 175.61 560.95 175.56 583.01 177.69 C 577.45 170.93 567.67 173.01 559.98 172.00 C 545.57 172.32 528.93 169.72 516.98 179.64 Z M 614.19 175.56 L 614.19 180.24 C 631.80 181.77 648.80 186.78 664.42 194.98 C 655.38 177.14 631.29 178.11 614.19 175.56 Z M 437.70 199.98 C 453.41 195.39 472.03 191.09 483.20 178.99 C 466.89 181.08 446.18 183.86 437.70 199.98 Z M 522.86 395.98 C 538.43 395.84 553.95 396.72 569.48 397.74 C 573.51 402.74 578.23 407.24 584.77 408.77 C 583.42 405.66 580.74 399.50 579.39 396.39 C 580.04 394.87 581.34 391.81 581.99 390.28 C 565.26 392.87 548.63 389.03 531.95 388.47 C 526.43 388.05 523.42 390.56 522.86 395.98 Z" fill="#fdfdfd" fill-rule="nonzero" node-id="114" stroke="none" target-height="395.144" target-width="525.11304" target-x="289.475" target-y="154.897"/><path d="M 441.64 386.52 C 449.15 381.29 461.84 384.86 464.81 393.89 C 467.50 408.21 447.66 421.37 436.45 411.04 C 428.30 403.71 433.35 391.25 441.64 386.52 Z M 446.23 391.16 C 440.94 393.85 440.16 399.92 442.61 404.87 C 448.59 408.39 455.49 404.50 458.13 398.76 C 462.35 392.08 450.54 387.50 446.23 391.16 Z" fill="#fdfdfd" fill-rule="nonzero" node-id="116" stroke="none" target-height="40.079956" target-width="39.19998" target-x="428.295" target-y="381.28903"/><path d="M 645.65 387.13 C 655.57 376.98 675.21 389.07 668.91 402.65 C 666.83 414.70 649.36 419.19 642.13 409.23 C 636.06 402.51 639.49 392.46 645.65 387.13 Z M 649.59 391.16 C 638.65 396.39 650.28 413.95 658.53 403.95 C 666.13 397.88 657.61 384.58 649.59 391.16 Z" fill="#fdfdfd" fill-rule="nonzero" node-id="118" stroke="none" target-height="42.211" target-width="39.151978" target-x="636.06" target-y="376.98004"/><path d="M 523.42 443.66 C 538.80 429.48 563.41 432.72 581.25 440.50 C 577.22 449.87 567.67 443.75 560.44 443.75 C 548.12 442.59 535.75 445.42 523.42 443.66 Z" fill="#fdfdfd" fill-rule="nonzero" node-id="120" stroke="none" target-height="20.386993" target-width="57.82599" target-x="523.42" target-y="429.478"/><path d="M 430.10 492.91 C 522.91 491.66 615.76 493.05 708.57 492.49 C 722.75 492.73 737.02 491.57 751.02 494.07 L 751.94 496.94 C 748.70 501.16 744.11 502.83 738.13 501.90 C 611.87 500.05 485.56 500.46 359.30 503.29 C 361.02 570.38 358.56 637.52 360.92 704.57 C 360.18 708.37 358.70 715.92 357.96 719.67 C 357.45 723.33 357.12 727.04 356.61 730.70 C 355.83 731.95 354.30 734.45 353.56 735.71 C 343.59 728.11 346.56 714.95 345.91 704.15 C 346.19 634.42 344.29 564.64 346.14 494.90 C 374.04 491.89 402.12 493.56 430.10 492.91 Z" fill="#fdfdfd" fill-rule="nonzero" node-id="122" stroke="none" target-height="244.139" target-width="408.34906" target-x="343.594" target-y="491.566"/><path d="M 215.85 601.38 C 218.72 600.64 224.38 599.11 227.25 598.37 C 213.76 616.53 205.56 637.29 200.47 659.25 C 198.85 647.11 203.11 635.53 207.32 624.41 C 212.38 617.64 215.39 609.81 215.85 601.38 Z" fill="#fdfdfd" fill-rule="nonzero" node-id="124" stroke="none" target-height="60.884033" target-width="28.402985" target-x="198.84502" target-y="598.368"/><path d="M 588.47 743.35 C 591.25 743.40 596.72 743.44 599.50 743.44 C 605.15 766.29 611.55 789.08 614.14 812.53 C 585.37 815.59 556.41 813.36 527.59 813.83 C 510.86 813.36 493.58 815.63 477.46 809.98 C 482.04 787.41 490.48 765.91 496.64 743.81 L 499.65 744.00 C 502.29 744.18 507.53 744.55 510.12 744.74 C 504.01 763.27 498.72 782.04 493.39 800.81 C 492.89 802.47 491.91 805.86 491.45 807.52 C 528.93 807.89 566.42 807.94 603.90 807.94 C 597.60 786.72 592.55 765.13 588.47 743.35 Z" fill="#fdfdfd" fill-rule="nonzero" node-id="126" stroke="none" target-height="72.282166" target-width="136.68802" target-x="477.45596" target-y="743.3499"/><path d="M 516.98 179.64 C 528.93 169.72 545.57 172.32 559.98 172.00 C 567.67 173.01 577.45 170.93 583.01 177.69 C 560.95 175.56 538.85 175.61 516.98 179.64 Z" fill="#8b8989" fill-rule="nonzero" node-id="128" stroke="none" target-height="9.916" target-width="66.02698" target-x="516.981" target-y="169.724"/><path d="M 614.19 175.56 C 631.29 178.11 655.38 177.14 664.42 194.98 C 648.80 186.78 631.80 181.77 614.19 180.24 L 614.19 175.56 Z" fill="#8b8989" fill-rule="nonzero" node-id="130" stroke="none" target-height="19.414017" target-width="50.22699" target-x="614.19" target-y="175.563"/><path d="M 522.87 395.98 C 523.42 390.56 526.43 388.05 531.95 388.47 C 548.63 389.03 565.26 392.87 581.99 390.28 C 581.34 391.81 580.04 394.87 579.39 396.39 C 580.74 399.50 583.42 405.66 584.77 408.77 C 578.24 407.24 573.51 402.74 569.48 397.74 C 553.96 396.72 538.43 395.84 522.87 395.98 Z" fill="#8b8989" fill-rule="nonzero" node-id="132" stroke="none" target-height="20.711975" target-width="61.902954" target-x="522.866" target-y="388.054"/><path d="M 129.57 489.99 C 132.08 488.65 137.08 485.96 139.58 484.62 C 156.54 493.23 161.50 513.62 169.75 529.28 C 164.33 534.75 156.77 536.14 149.59 537.81 C 144.96 524.60 140.93 511.07 135.55 498.15 C 134.12 497.40 131.29 495.83 129.85 495.04 C 134.12 510.33 142.27 524.37 144.82 540.22 C 130.73 528.26 122.95 509.36 124.20 490.96 L 129.57 489.99 Z" fill="#8b8989" fill-rule="nonzero" node-id="134" stroke="none" target-height="55.60202" target-width="46.797997" target-x="122.949" target-y="484.616"/><path d="M 183.42 488.55 C 191.29 496.52 200.10 507.13 195.32 519.13 C 194.49 529.61 182.95 528.96 175.40 531.74 C 175.31 528.40 175.12 521.68 175.03 518.35 C 182.95 510.33 182.77 498.98 183.42 488.55 Z" fill="#8b8989" fill-rule="nonzero" node-id="136" stroke="none" target-height="43.184998" target-width="25.067001" target-x="175.03" target-y="488.55402"/><path d="M 359.30 503.29 C 485.56 500.46 611.87 500.05 738.14 501.90 C 739.62 512.18 740.78 522.56 740.73 532.99 C 740.45 594.94 740.36 656.84 740.50 718.79 C 644.86 719.21 549.18 718.05 453.50 718.75 C 421.62 719.44 389.70 716.66 357.96 719.67 C 358.70 715.92 360.18 708.37 360.92 704.57 C 358.56 637.52 361.02 570.38 359.30 503.29 Z M 538.02 633.95 C 547.38 633.44 556.78 632.70 565.82 629.97 C 558.22 620.05 545.66 625.15 535.33 625.89 C 535.70 621.30 536.35 612.04 536.72 607.40 C 539.17 609.40 544.04 613.38 546.50 615.37 C 556.87 614.26 567.53 613.29 576.38 607.12 C 573.18 602.63 569.99 598.18 566.79 593.74 C 560.72 599.43 555.44 611.02 545.34 608.01 C 544.83 601.10 545.48 594.20 547.28 587.34 C 530.79 596.98 520.96 619.87 538.02 633.95 Z" fill="#8b8989" fill-rule="nonzero" node-id="138" stroke="none" target-height="219.62692" target-width="382.81897" target-x="357.958" target-y="500.046"/><path d="M 125.78 571.96 C 127.03 550.83 149.27 542.77 166.74 538.41 C 192.17 536.14 218.82 535.86 243.23 544.48 C 248.70 546.29 251.81 550.23 252.50 556.34 C 224.98 548.05 195.79 549.90 167.43 550.50 C 155.24 550.41 144.35 556.06 134.02 562.00 C 140.37 572.75 150.38 580.11 160.85 586.51 C 150.43 585.63 140.00 584.61 129.57 584.14 L 126.80 588.68 C 126.24 583.12 125.50 577.56 125.78 571.96 Z" fill="#8b8989" fill-rule="nonzero" node-id="140" stroke="none" target-height="52.82202" target-width="127.004" target-x="125.49701" target-y="535.862"/><path d="M 143.10 562.78 C 152.51 558.75 162.66 557.22 172.85 557.27 C 174.80 564.22 176.93 571.17 179.06 578.07 C 166.13 575.57 152.65 572.65 143.10 562.78 Z" fill="#8b8989" fill-rule="nonzero" node-id="142" stroke="none" target-height="20.849976" target-width="35.955994" target-x="143.104" target-y="557.223"/><path d="M 194.54 556.81 C 213.02 556.57 231.70 557.04 249.63 562.00 C 249.17 570.66 248.70 579.42 245.88 587.71 C 242.82 588.96 236.75 591.51 233.69 592.76 C 229.47 592.76 221.13 592.67 216.92 592.62 C 226.23 587.11 236.75 584.00 245.97 578.30 C 244.44 567.46 232.30 562.92 223.63 558.71 C 225.77 565.05 227.99 571.45 230.26 577.79 C 220.30 578.35 210.34 578.40 200.38 577.93 C 198.43 570.89 196.48 563.85 194.54 556.81 Z" fill="#8b8989" fill-rule="nonzero" node-id="144" stroke="none" target-height="36.18805" target-width="55.091995" target-x="194.537" target-y="556.574"/><path d="M 163.12 596.33 C 175.22 595.73 187.35 594.89 199.40 596.38 C 194.81 608.89 191.25 621.72 187.40 634.51 C 186.20 634.32 183.79 633.95 182.58 633.77 C 177.90 620.38 171.37 607.82 163.12 596.33 Z" fill="#8b8989" fill-rule="nonzero" node-id="146" stroke="none" target-height="39.615967" target-width="36.279984" target-x="163.122" target-y="594.893"/><path d="M 566.14 603.51 C 568.37 605.83 568.37 605.83 566.14 603.51 Z" fill="#8b8989" fill-rule="nonzero" node-id="148" stroke="none" target-height="2.3170166" target-width="2.223999" target-x="566.142" target-y="603.511"/><path d="M 172.06 626.86 C 174.20 629.04 174.20 629.04 172.06 626.86 Z" fill="#8b8989" fill-rule="nonzero" node-id="150" stroke="none" target-height="2.1779785" target-width="2.1310272" target-x="172.064" target-y="626.864"/><path d="M 181.10 639.05 C 183.60 646.83 184.81 655.41 189.81 662.12 C 195.83 663.19 201.90 664.07 208.02 664.72 L 208.85 658.00 C 216.96 659.99 225.07 661.99 233.13 664.16 L 228.18 667.13 C 210.29 668.01 192.31 669.12 174.52 666.71 C 164.33 661.89 153.21 660.18 142.04 659.85 C 153.76 659.35 165.44 658.09 177.11 657.07 L 184.02 656.43 C 183.32 652.07 181.84 643.40 181.10 639.05 Z" fill="#8b8989" fill-rule="nonzero" node-id="152" stroke="none" target-height="30.070984" target-width="91.093994" target-x="142.039" target-y="639.05"/><path d="M 154.97 687.56 C 177.76 687.52 200.84 685.25 223.31 690.20 C 219.37 694.75 214.74 699.61 208.21 699.70 C 187.45 702.39 166.32 701.51 145.65 698.64 C 147.97 695.86 152.65 690.30 154.97 687.56 Z" fill="#8b8989" fill-rule="nonzero" node-id="154" stroke="none" target-height="17.144043" target-width="77.65698" target-x="145.653" target-y="685.246"/><path d="M 499.65 744.00 C 526.94 742.93 554.42 743.30 581.76 743.95 C 589.31 762.07 590.98 782.60 596.40 801.59 C 562.07 801.27 527.68 802.61 493.40 800.81 C 498.72 782.04 504.01 763.27 510.12 744.74 C 507.53 744.55 502.29 744.18 499.65 744.00 Z" fill="#8b8989" fill-rule="nonzero" node-id="156" stroke="none" target-height="59.679016" target-width="103.00299" target-x="493.396" target-y="742.933"/><path d="M 887.61 750.86 C 902.30 749.70 917.31 749.00 930.84 742.38 C 931.68 748.26 929.27 751.69 923.57 752.62 C 911.94 755.40 898.36 757.39 887.61 750.86 Z" fill="#8b8989" fill-rule="nonzero" node-id="158" stroke="none" target-height="15.012024" target-width="44.065002" target-x="887.613" target-y="742.37695"/><path d="M 418.75 336.48 C 438.58 327.91 464.90 326.43 480.98 343.16 C 498.45 361.32 494.04 390.32 485.15 411.59 C 470.64 440.60 448.13 470.71 414.49 477.53 C 388.86 480.21 362.92 480.82 337.25 478.59 C 332.29 477.02 327.38 475.35 322.47 473.59 C 318.76 455.05 320.47 435.18 330.34 418.73 C 350.59 383.37 381.08 352.79 418.75 336.48 Z M 441.64 386.52 C 433.35 391.25 428.30 403.71 436.45 411.04 C 447.66 421.37 467.49 408.21 464.81 393.89 C 461.84 384.86 449.15 381.29 441.64 386.52 Z" fill="#39292c" fill-rule="nonzero" node-id="160" stroke="none" target-height="154.38702" target-width="179.686" target-x="318.76" target-y="326.429"/><path d="M 614.75 365.81 C 615.72 346.49 633.88 331.80 652.65 331.67 C 688.47 330.18 719.09 353.49 743.60 377.17 C 763.06 397.51 784.24 420.07 788.41 449.08 C 791.05 468.54 775.57 484.34 758.01 489.57 C 757.04 490.69 755.10 492.86 754.12 493.98 L 751.94 496.94 L 751.02 494.07 L 749.07 488.09 C 737.49 486.10 725.67 486.61 714.09 484.94 C 655.99 479.66 609.84 423.64 614.75 365.81 Z M 645.65 387.13 C 639.49 392.46 636.06 402.51 642.13 409.23 C 649.36 419.19 666.83 414.70 668.91 402.65 C 675.21 389.07 655.57 376.98 645.65 387.13 Z" fill="#39292c" fill-rule="nonzero" node-id="162" stroke="none" target-height="166.759" target-width="181.21606" target-x="609.835" target-y="330.182"/><path d="M 191.99 446.30 C 205.98 446.20 211.50 467.10 212.24 476.97 L 210.10 479.15 C 210.43 491.15 212.84 503.20 210.10 515.24 C 205.61 519.13 201.49 523.40 197.87 528.12 C 203.62 529.33 209.36 530.53 215.06 531.69 C 216.73 516.59 218.31 501.48 218.03 486.28 C 219.19 486.75 221.60 487.58 222.80 488.00 C 226.23 501.90 222.71 516.31 222.71 530.44 C 234.52 533.27 245.23 539.62 257.13 541.98 C 258.85 539.11 262.32 533.31 264.04 530.44 C 265.80 532.71 267.51 534.98 269.23 537.25 C 247.68 554.12 257.13 585.95 253.15 609.72 C 255.24 611.06 259.40 613.71 261.49 615.05 L 261.35 615.65 C 260.47 617.27 258.66 620.42 257.78 622.04 C 262.09 637.20 269.64 651.00 277.52 664.53 L 277.20 672.87 C 256.81 650.82 248.70 620.75 247.64 591.33 C 223.59 604.11 214.23 633.03 208.85 658.00 L 208.02 664.72 C 201.90 664.07 195.83 663.19 189.81 662.12 C 184.81 655.41 183.60 646.83 181.10 639.05 C 181.84 643.40 183.32 652.07 184.02 656.42 L 177.11 657.07 C 169.93 638.96 163.54 617.78 146.30 606.75 C 148.29 604.44 150.33 602.12 152.42 599.80 C 156.82 606.11 161.55 612.27 167.20 617.46 C 163.58 608.89 157.47 601.75 151.40 594.80 C 142.92 593.87 133.56 594.99 126.79 588.68 L 129.57 584.14 C 140.00 584.61 150.43 585.63 160.85 586.51 C 150.38 580.11 140.37 572.75 134.02 562.00 C 144.35 556.06 155.24 550.41 167.43 550.50 C 195.79 549.90 224.98 548.05 252.50 556.34 C 251.81 550.23 248.70 546.29 243.23 544.48 C 218.81 535.86 192.17 536.14 166.74 538.41 C 149.27 542.77 127.03 550.83 125.78 571.96 C 116.23 560.14 125.96 548.28 137.36 543.28 C 127.49 526.50 114.89 507.09 121.88 486.84 C 123.46 479.80 131.10 471.60 138.61 476.37 C 149.96 482.53 158.58 493.19 163.40 505.10 C 165.76 502.27 170.44 496.57 172.81 493.74 C 173.69 501.90 174.43 510.15 175.03 518.35 C 175.12 521.68 175.31 528.40 175.40 531.74 C 182.95 528.96 194.49 529.61 195.32 519.13 C 200.10 507.13 191.29 496.52 183.42 488.55 C 181.66 486.66 178.18 482.95 176.42 481.05 L 174.33 492.45 L 168.63 497.22 C 173.78 479.84 175.59 456.91 191.99 446.30 Z M 187.91 467.29 C 199.45 480.45 196.99 498.33 199.91 514.32 C 211.77 498.70 200.75 477.39 199.26 459.69 C 198.66 446.02 179.34 459.92 187.91 467.29 Z M 187.91 485.40 C 189.86 480.17 187.82 472.99 183.88 469.19 C 176.00 471.23 179.71 487.95 187.91 485.40 Z M 129.57 489.99 L 124.20 490.96 C 122.95 509.36 130.73 528.26 144.82 540.22 C 142.27 524.37 134.12 510.33 129.85 495.04 C 131.29 495.83 134.12 497.40 135.55 498.15 C 140.93 511.07 144.96 524.60 149.59 537.81 C 156.77 536.14 164.33 534.75 169.75 529.28 C 161.50 513.62 156.54 493.23 139.58 484.62 C 138.24 476.65 124.15 484.06 129.57 489.99 Z M 143.10 562.78 C 152.65 572.65 166.13 575.57 179.06 578.07 C 176.93 571.17 174.80 564.22 172.85 557.27 C 162.66 557.22 152.51 558.75 143.10 562.78 Z M 194.54 556.81 C 196.48 563.85 198.43 570.89 200.37 577.93 C 210.34 578.40 220.30 578.35 230.26 577.79 C 227.99 571.45 225.77 565.05 223.63 558.71 C 232.30 562.92 244.44 567.46 245.97 578.30 C 236.75 584.00 226.23 587.11 216.92 592.62 C 221.13 592.67 229.47 592.76 233.69 592.76 C 236.75 591.51 242.82 588.96 245.88 587.71 C 248.70 579.42 249.16 570.66 249.63 562.00 C 231.70 557.04 213.02 556.57 194.54 556.81 Z M 163.12 596.33 C 171.37 607.82 177.90 620.38 182.58 633.77 C 183.79 633.95 186.20 634.32 187.40 634.51 C 191.25 621.72 194.81 608.89 199.40 596.38 C 187.35 594.89 175.21 595.73 163.12 596.33 Z M 215.85 601.38 C 215.39 609.81 212.38 617.64 207.32 624.41 C 203.11 635.53 198.85 647.11 200.47 659.25 C 205.56 637.29 213.76 616.53 227.25 598.37 C 224.38 599.11 218.72 600.64 215.85 601.38 Z M 172.06 626.86 C 174.20 629.04 174.20 629.04 172.06 626.86 Z" fill="#39292c" fill-rule="nonzero" node-id="164" stroke="none" target-height="226.85501" target-width="162.636" target-x="114.886" target-y="446.019"/><path d="M 864.40 755.16 C 878.44 735.10 905.45 734.27 927.09 728.62 C 934.13 735.94 939.00 744.97 942.15 754.61 C 921.90 760.73 900.68 761.42 879.83 764.25 L 881.87 758.27 C 882.38 756.69 883.40 753.64 883.91 752.11 C 877.42 753.17 870.89 754.24 864.40 755.16 Z M 887.61 750.86 C 898.36 757.39 911.94 755.40 923.57 752.62 C 929.27 751.69 931.68 748.26 930.84 742.38 C 917.31 749.00 902.30 749.70 887.61 750.86 Z" fill="#39292c" fill-rule="nonzero" node-id="166" stroke="none" target-height="35.63202" target-width="77.75006" target-x="864.3989" target-y="728.615"/><path d="M 263.44 708.09 C 270.39 702.25 277.15 695.90 285.31 691.83 C 290.31 696.13 295.41 700.44 300.18 704.99 C 287.85 705.31 275.57 706.28 263.44 708.09 Z" fill="#e7997d" fill-rule="nonzero" node-id="168" stroke="none" target-height="16.263855" target-width="36.743988" target-x="263.435" target-y="691.8251"/><path d="M 800.04 700.95 C 804.35 688.81 818.90 692.75 828.81 691.36 C 852.45 691.73 876.35 689.79 899.71 694.14 C 894.56 700.30 888.12 702.76 880.38 701.51 C 853.60 700.07 826.82 702.53 800.04 700.95 Z" fill="#e7997d" fill-rule="nonzero" node-id="170" stroke="none" target-height="13.945923" target-width="99.666016" target-x="800.04" target-y="688.814"/><path d="M 153.44 704.98 C 173.96 707.86 194.63 706.88 215.11 704.57 C 219.09 710.36 223.40 715.97 227.99 721.34 C 207.18 736.96 178.69 730.00 154.50 729.31 C 154.18 721.20 153.81 713.09 153.44 704.98 Z" fill="#e7997d" fill-rule="nonzero" node-id="172" stroke="none" target-height="32.388916" target-width="74.55299" target-x="153.436" target-y="704.5671"/><path d="M 802.82 709.16 C 839.38 709.71 875.98 708.18 912.54 710.03 C 918.70 710.08 924.26 713.09 929.03 716.85 C 898.45 723.94 867.36 728.75 837.89 740.20 C 826.31 729.73 814.08 720.00 802.82 709.16 Z" fill="#e7997d" fill-rule="nonzero" node-id="174" stroke="none" target-height="32.016968" target-width="126.216" target-x="802.819" target-y="708.182"/><path d="M 248.98 735.15 C 250.88 728.06 247.40 713.09 259.03 713.79 C 283.08 713.09 307.64 711.61 331.41 716.20 C 337.06 724.21 339.61 734.50 346.93 741.26 C 355.74 744.79 365.46 743.91 374.73 744.28 C 412.73 743.95 450.77 745.39 488.76 744.51 C 485.89 753.54 483.06 762.62 480.19 771.66 C 363.47 770.32 246.80 773.79 130.13 772.26 C 138.84 759.52 147.97 747.06 157.05 734.55 C 183.23 737.51 209.69 736.03 234.62 726.99 C 235.17 727.97 236.28 729.96 236.89 730.93 L 233.09 734.31 C 230.40 742.93 228.55 751.83 227.06 760.77 C 234.34 752.71 240.73 743.95 247.08 735.19 C 247.54 735.19 248.52 735.15 248.98 735.15 Z" fill="#e7997d" fill-rule="nonzero" node-id="176" stroke="none" target-height="62.182007" target-width="358.632" target-x="130.13" target-y="711.61"/><path d="M 764.78 711.75 C 775.02 710.87 785.45 708.64 795.73 710.41 C 819.92 726.72 842.16 746.36 855.92 772.54 C 775.81 772.22 695.69 771.61 615.58 770.69 C 613.22 761.75 610.62 752.89 607.98 744.04 C 649.17 745.71 690.41 744.74 731.60 745.34 C 740.41 744.97 750.88 745.90 757.41 738.72 C 764.92 731.81 763.99 720.97 764.78 711.75 Z" fill="#e7997d" fill-rule="nonzero" node-id="178" stroke="none" target-height="63.895996" target-width="247.93799" target-x="607.982" target-y="708.645"/><path d="M 920.60 722.82 C 932.51 715.97 938.35 729.40 944.14 737.23 C 951.09 748.22 961.01 757.94 963.18 771.20 C 936.96 771.29 910.69 772.12 884.46 772.26 C 876.31 771.94 867.32 773.05 860.23 768.18 C 866.71 766.61 873.25 765.27 879.83 764.25 C 900.68 761.42 921.90 760.73 942.15 754.61 C 939.00 744.97 934.13 735.94 927.09 728.62 C 926.21 727.83 924.40 726.21 923.52 725.42 L 920.60 722.82 Z" fill="#e7997d" fill-rule="nonzero" node-id="180" stroke="none" target-height="57.084045" target-width="102.95599" target-x="860.229" target-y="715.96594"/><path d="M 132.68 779.40 C 247.64 780.00 362.55 778.47 477.50 778.70 C 474.17 789.64 471.06 800.67 468.10 811.69 C 480.52 823.32 498.26 820.64 513.83 821.56 C 544.74 821.79 575.69 822.72 606.59 820.82 C 613.91 821.28 619.47 816.56 624.80 812.30 C 622.25 800.99 619.66 789.68 616.65 778.47 C 732.11 777.13 847.58 780.70 963.00 778.61 C 962.30 818.37 962.54 858.12 962.35 897.83 C 690.41 898.11 418.43 896.44 146.44 896.81 C 144.36 859.79 145.56 822.72 145.33 785.70 C 141.11 783.57 136.90 781.48 132.68 779.40 Z M 358.10 840.93 C 344.11 845.98 351.29 868.36 365.28 866.55 C 488.99 866.28 612.75 866.74 736.47 866.83 C 751.94 868.04 755.14 843.90 741.06 839.26 C 620.59 837.46 500.02 839.87 379.55 838.89 C 372.42 839.22 364.86 838.24 358.10 840.93 Z" fill="#e7997d" fill-rule="nonzero" node-id="182" stroke="none" target-height="120.97998" target-width="830.321" target-x="132.679" target-y="777.128"/><path d="M 360.51 847.56 C 382.14 844.17 404.11 846.77 425.88 846.12 C 530.83 847.00 635.97 843.66 740.82 846.82 C 740.87 849.83 741.01 855.80 741.05 858.82 C 619.05 859.37 496.78 857.61 374.69 858.96 C 367.87 860.02 353.65 857.52 360.51 847.56 Z" fill="#e7997d" fill-rule="nonzero" node-id="184" stroke="none" target-height="16.356018" target-width="387.40598" target-x="353.64896" target-y="843.665"/><path d="M 329.00 905.75 C 476.90 903.21 624.94 906.17 772.89 905.01 C 773.21 908.21 773.86 914.60 774.18 917.80 C 624.71 918.63 475.19 918.13 325.71 917.57 C 326.50 914.60 328.17 908.72 329.00 905.75 Z" fill="#e7997d" fill-rule="nonzero" node-id="186" stroke="none" target-height="15.429016" target-width="448.47507" target-x="325.709" target-y="903.205"/></svg>